<svg width="62" height="62" viewBox="0 0 62 62" fill="none" xmlns="http://www.w3.org/2000/svg">
<g clip-path="url(#clip0_45_110)">
<path d="M60.7891 48.5534C50.6759 48.5534 40.75 52.7018 33.5563 59.9348C33.0842 60.4092 33.0865 61.176 33.5605 61.6471C33.797 61.8822 34.1054 61.9995 34.4148 61.9995C34.7256 61.9995 35.0363 61.8808 35.2733 61.6429C42.0158 54.8635 51.3159 50.9753 60.7891 50.9753C61.458 50.9753 62 50.4332 62 49.7643C62 49.096 61.458 48.5534 60.7891 48.5534Z" fill="#121212"/>
<path d="M35.5372 47.4319C35.1625 46.8775 34.4099 46.7318 33.856 47.1064C28.6779 50.604 24.3048 54.9804 20.8574 60.1136C20.4846 60.6689 20.6322 61.4215 21.1875 61.7942C21.3952 61.9333 21.6293 62 21.8616 62C22.2514 62 22.6345 61.8117 22.8682 61.4641C26.1406 56.5905 30.2932 52.435 35.2117 49.113C35.7656 48.7388 35.9113 47.9862 35.5372 47.4319Z" fill="#121212"/>
<path d="M60.7891 38.8053C55.3753 38.8053 50.0169 39.7301 44.8629 41.5541C44.2324 41.7769 43.9022 42.4689 44.1255 43.0994C44.3009 43.5966 44.7683 43.9069 45.2669 43.9069C45.4007 43.9069 45.537 43.8842 45.6708 43.8369C50.5647 42.1051 55.6511 41.2272 60.7891 41.2272C61.4579 41.2272 62 40.6851 62 40.0163C62 39.3474 61.4579 38.8053 60.7891 38.8053Z" fill="#121212"/>
<path d="M17.35 53.6903C25.3166 43.3032 36.8489 36.0911 49.5742 33.3882C49.5765 33.3877 49.5789 33.3873 49.5808 33.3868C53.2377 32.6106 56.9921 32.2061 60.7891 32.2061C61.4574 32.2061 62 31.6636 62 30.9952C62 30.3263 61.4574 29.7843 60.7891 29.7843C57.3459 29.7843 53.916 30.0993 50.5443 30.7156V28.1017C54.9212 24.3965 57.3237 19.5414 57.3237 14.3713C57.3237 9.02568 54.7557 4.01685 50.0921 0.2672C49.6489 -0.0889854 49.0174 -0.0889854 48.5742 0.2672C43.9111 4.01685 41.3426 9.02568 41.3426 14.3713C41.3426 19.5414 43.7456 24.3965 48.122 28.1017V31.2109C45.8212 31.7345 43.5535 32.402 41.3332 33.2056V26.1155C41.3332 25.7825 41.1988 25.4812 40.9812 25.2622V25.2617L34.2 18.4402C33.9725 18.2118 33.6636 18.0831 33.341 18.0831H19.4961C19.174 18.0831 18.8646 18.2118 18.6376 18.4402L11.8563 25.2617V25.2622C11.6387 25.4812 11.5039 25.7825 11.5039 26.116V30.7402C10.66 30.5856 9.81238 30.4493 8.96094 30.333V26.0162C12.2707 23.169 14.0866 19.4558 14.0866 15.4999C14.0866 11.3671 12.1056 7.49876 8.50873 4.60623C8.06551 4.25005 7.43449 4.25005 6.99127 4.60623C3.39441 7.49829 1.41339 11.3671 1.41339 15.4999C1.41339 19.4553 3.22932 23.1686 6.53906 26.0157V30.0544C4.77327 29.8893 2.99565 29.8041 1.21094 29.8041C0.542084 29.8041 0 30.3462 0 31.0151C0 31.6839 0.542084 32.226 1.21094 32.226C10.8937 32.226 20.3646 34.7879 28.7139 39.6482C26.7135 41.0077 24.8029 42.4925 22.9941 44.0908C16.2294 40.6444 8.71307 38.8256 1.21094 38.8256C0.542557 38.8256 0 39.3677 0 40.0365C0 40.7054 0.542557 41.2475 1.21094 41.2475C8.03712 41.2475 14.877 42.8349 21.0911 45.8495C19.2501 47.6304 17.5293 49.5358 15.9413 51.5499C11.231 49.5746 6.28032 48.5737 1.21094 48.5737C0.542557 48.5737 0 49.1157 0 49.7846C0 50.4534 0.542557 50.9955 1.21094 50.9955C5.75195 50.9955 10.1917 51.8564 14.4329 53.5517C13.5961 54.7144 12.8009 55.9088 12.0531 57.1349L10.2078 60.158C9.85921 60.7284 10.0399 61.4739 10.6104 61.8221C10.8076 61.9427 11.0252 61.9999 11.2404 61.9999C11.6482 61.9999 12.0469 61.7932 12.2749 61.4195L14.1202 58.3964C15.0823 56.8199 16.122 55.3029 17.2303 53.8464C17.2738 53.7982 17.3145 53.7466 17.35 53.6903ZM43.765 14.3713C43.765 10.0673 45.7342 5.9903 49.3334 2.7955C52.9326 5.9903 54.9018 10.0673 54.9018 14.3713C54.9018 18.164 53.3711 21.7812 50.5443 24.7731V15.4999C50.5443 14.8311 50.0023 14.289 49.3334 14.289C48.6645 14.289 48.1225 14.8311 48.1225 15.4999V24.7731C45.2952 21.7812 43.765 18.164 43.765 14.3713ZM3.83527 15.4999C3.83527 12.4111 5.21791 9.47742 7.75 7.14636C10.2821 9.47694 11.6647 12.4111 11.6647 15.4999C11.6647 18.0528 10.7192 20.5003 8.96094 22.5891V14.5312C8.96094 13.8623 8.41885 13.3203 7.75 13.3203C7.08162 13.3203 6.53906 13.8623 6.53906 14.5312V22.5891C4.78084 20.5003 3.83527 18.0528 3.83527 15.4999ZM37.2113 24.9046H26.7811L22.4075 20.505H32.8377L37.2113 24.9046ZM19.4961 21.0116L23.3664 24.9046H15.6263L19.4961 21.0116ZM13.9258 27.3264H25.0664V35.0272C24.5049 34.769 23.9401 34.5192 23.3711 34.2794V30.2123C23.3711 29.544 22.829 29.0014 22.1602 29.0014H16.832C16.1636 29.0014 15.6211 29.544 15.6211 30.2123V31.6522C15.0582 31.5056 14.4934 31.3665 13.9258 31.2369V27.3264ZM20.9492 33.3239C19.989 32.9701 19.0202 32.6418 18.043 32.3405V31.4233H20.9492V33.3239ZM27.4883 36.2122V27.3264H38.9118V34.1455C36.8376 35.005 34.8107 35.9861 32.8457 37.0891C32.2176 37.4415 31.597 37.8077 30.9834 38.1832C29.8387 37.4841 28.6732 36.8266 27.4883 36.2122Z" fill="#121212"/>
<path d="M49.3335 12.1094C49.6518 12.1094 49.9645 11.9798 50.1897 11.7541C50.4148 11.529 50.5444 11.2168 50.5444 10.8984C50.5444 10.5796 50.4153 10.2674 50.1897 10.0423C49.9645 9.81664 49.6518 9.6875 49.3335 9.6875C49.0152 9.6875 48.7025 9.81664 48.4778 10.0423C48.2522 10.2674 48.1226 10.5796 48.1226 10.8984C48.1226 11.2168 48.2522 11.529 48.4778 11.7541C48.7025 11.9793 49.0152 12.1094 49.3335 12.1094Z" fill="#121212"/>
<path d="M38.8223 44.2319C38.5976 44.457 38.4675 44.7692 38.4675 45.0876C38.4675 45.4073 38.5971 45.7186 38.8223 45.9437C39.0479 46.1694 39.3601 46.2985 39.6785 46.2985C39.9973 46.2985 40.3095 46.1694 40.5346 45.9437C40.7598 45.7186 40.8894 45.4073 40.8894 45.0876C40.8894 44.7692 40.7598 44.457 40.5346 44.2319C40.3095 44.0062 39.9973 43.8766 39.6785 43.8766C39.3601 43.8766 39.0479 44.0062 38.8223 44.2319Z" fill="#121212"/>
</g>
<defs>
<clipPath id="clip0_45_110">
<rect width="62" height="62" fill="white"/>
</clipPath>
</defs>
</svg>
