<svg width="62" height="62" viewBox="0 0 62 62" fill="none" xmlns="http://www.w3.org/2000/svg">
<path d="M44.0259 20.889C43.548 19.4659 40.8326 13.8715 35.7752 12.9408C31.2735 14.0375 27.3618 16.8148 24.8422 20.7032C24.7095 20.9194 24.6668 21.1791 24.7234 21.4264C24.7799 21.6737 24.9313 21.889 25.1448 22.026C25.3583 22.1629 25.6171 22.2107 25.8655 22.159C26.1139 22.1073 26.3321 21.9603 26.4732 21.7495C28.6819 18.3967 32.0349 15.9618 35.9067 14.8992C38.4247 15.9246 40.4689 17.8536 41.6385 20.308C32.7436 18.7846 23.3764 22.8236 16.6515 30.2972C15.8843 29.3371 14.9868 28.4887 13.985 27.7768C13.881 27.7035 13.7636 27.6514 13.6395 27.6234C13.5153 27.5955 13.3869 27.5923 13.2616 27.614C13.1362 27.6357 13.0164 27.6819 12.9088 27.7499C12.8013 27.8179 12.7083 27.9065 12.635 28.0104C12.5617 28.1144 12.5096 28.2318 12.4816 28.356C12.4537 28.4801 12.4505 28.6085 12.4722 28.7338C12.4939 28.8592 12.5401 28.9791 12.6081 29.0866C12.6761 29.1941 12.7646 29.2872 12.8686 29.3605C13.846 30.0569 14.7066 30.9041 15.4184 31.8704C14.6673 32.8985 13.9937 33.981 13.4031 35.1091C13.3444 35.222 13.3085 35.3453 13.2975 35.472C13.2865 35.5988 13.3005 35.7264 13.3388 35.8478C13.3771 35.9691 13.4389 36.0817 13.5207 36.1791C13.6025 36.2765 13.7027 36.3569 13.8156 36.4156C13.9285 36.4743 14.0518 36.5102 14.1785 36.5212C14.3053 36.5323 14.433 36.5182 14.5543 36.4799C14.6756 36.4416 14.7882 36.3798 14.8856 36.298C14.983 36.2162 15.0634 36.116 15.1221 36.0031C18.8717 28.7957 25.4591 25.1075 30.3246 23.2831C46.1865 17.8481 54.8747 29.3382 54.6718 38.1852C54.6715 38.4392 54.771 38.6831 54.9487 38.8646C55.1265 39.046 55.3684 39.1504 55.6223 39.1553C55.8763 39.1601 56.122 39.0651 56.3066 38.8907C56.4912 38.7162 56.6 38.4763 56.6095 38.2225C56.6119 38.0889 56.7207 24.8999 44.0259 20.889Z" fill="#121212"/>
<path d="M33.0368 42.9121C27.39 42.3757 21.9535 40.4957 17.1816 37.4293C17.0714 37.3479 16.9453 37.2906 16.8114 37.2615C16.6776 37.2323 16.5391 37.2317 16.405 37.2599C16.271 37.2881 16.1444 37.3444 16.0336 37.425C15.9229 37.5057 15.8305 37.6089 15.7625 37.7278C13.2635 42.1151 8.54606 43.019 5.88484 43.16C10.7589 36.6332 7.33086 30.4579 5.47898 27.9452C6.84086 27.5992 8.26464 27.5754 9.63732 27.8757C9.76173 27.9049 9.89067 27.9092 10.0167 27.8883C10.1428 27.8674 10.2635 27.8218 10.3719 27.7541C10.4802 27.6864 10.5742 27.598 10.6482 27.4938C10.7222 27.3897 10.7749 27.2719 10.8032 27.1473C10.8316 27.0227 10.835 26.8937 10.8132 26.7678C10.7915 26.6419 10.7451 26.5215 10.6766 26.4136C10.6082 26.3057 10.5191 26.2124 10.4144 26.1391C10.3098 26.0658 10.1916 26.0139 10.0668 25.9864C9.01631 25.4914 1.28734 25.65 3.12706 28.1254C3.43032 28.4338 10.4698 35.7676 3.11813 43.4267C2.99343 43.5565 2.90738 43.7185 2.86962 43.8945C2.83186 44.0705 2.84389 44.2535 2.90436 44.423C2.96484 44.5926 3.07135 44.7419 3.21197 44.8543C3.35258 44.9666 3.52172 45.0376 3.70041 45.0591C4.18338 45.1102 4.66886 45.1339 5.15451 45.1301C7.82567 45.1301 13.519 44.5043 16.8954 39.5683C21.7526 42.4714 27.1891 44.2702 32.8192 44.8373C33.0724 44.862 33.3251 44.7861 33.5228 44.626C33.7205 44.466 33.8473 44.2346 33.8758 43.9818C33.9044 43.7291 33.8324 43.4753 33.6755 43.2751C33.5185 43.075 33.2891 42.9446 33.0368 42.9121Z" fill="#121212"/>
<path d="M50.1308 38.0438C49.8769 38.0584 49.6389 38.1722 49.4682 38.3608C49.2975 38.5494 49.2078 38.7975 49.2185 39.0516C49.2291 39.3058 49.3393 39.5455 49.5253 39.7191C49.7112 39.8927 49.9579 39.9861 50.2122 39.9794C51.1863 39.8375 52.1794 40.0373 53.0229 40.5446C50.5746 41.3795 48.0658 42.0247 45.5185 42.4747C40.625 33.0629 45.981 27.8651 46.2274 27.6344C46.4097 27.4586 46.516 27.2184 46.5234 26.9652C46.5308 26.7121 46.4388 26.4661 46.2671 26.2799C46.0954 26.0937 45.8576 25.9822 45.6047 25.9691C45.3517 25.9561 45.1037 26.0426 44.9138 26.2102C44.8456 26.273 38.4354 32.3557 43.5062 42.7856C41.4871 43.0535 39.4518 43.1811 37.415 43.1675C37.1581 43.1645 36.9106 43.2636 36.7267 43.443C36.5428 43.6225 36.4377 43.8675 36.4345 44.1244C36.4227 44.9257 37.2183 45.1987 37.8999 45.1078C43.6502 45.0566 49.3476 44.0034 54.7362 41.9954C54.9291 41.9252 55.0948 41.7955 55.2092 41.625C55.3236 41.4546 55.381 41.2522 55.3729 41.047C55.2891 39.0574 52.6933 37.7983 50.1308 38.0438Z" fill="#121212"/>
<path d="M37.5154 38.1048C37.3214 37.9363 37.0684 37.8518 36.8121 37.8697C36.5557 37.8876 36.317 38.0066 36.1483 38.2004C35.9279 38.3888 35.6593 38.512 35.3726 38.5561C35.086 38.6003 34.7928 38.5636 34.5259 38.4501C33.7972 36.7609 32.4787 35.3946 30.8164 34.6064C32.3256 34.3877 33.8657 34.5981 35.261 35.2134C36.6562 35.8287 37.8502 36.8241 38.7064 38.0859C38.8449 38.2991 39.0616 38.4493 39.3098 38.5041C39.558 38.559 39.8178 38.5142 40.0333 38.3793C40.2487 38.2444 40.4025 38.0302 40.4615 37.783C40.5205 37.5357 40.48 37.2752 40.3487 37.0575C38.9844 35.0551 36.9555 33.6001 34.6212 32.9502C32.2869 32.3004 29.7979 32.4976 27.5951 33.5071C27.413 33.5848 27.2589 33.7161 27.1532 33.8835C27.0475 34.051 26.9953 34.2467 27.0035 34.4445C27.0117 34.6423 27.08 34.833 27.1992 34.9911C27.3184 35.1492 27.4829 35.2673 27.6709 35.3296C28.956 35.7326 32.3769 37.2411 32.761 39.3546C33.0131 40.3149 34.2368 40.4183 35.242 40.5027C36.2698 40.6378 38.7309 39.4292 37.5154 38.1048Z" fill="#121212"/>
<path d="M50.2217 32.2228V31.8727C50.2181 31.6182 50.1144 31.3753 49.9331 31.1965C49.7519 31.0178 49.5075 30.9176 49.2529 30.9176C48.9983 30.9176 48.754 31.0178 48.5727 31.1965C48.3914 31.3753 48.2878 31.6182 48.2842 31.8727V32.2227C48.2878 32.4773 48.3914 32.7202 48.5727 32.8989C48.754 33.0777 48.9983 33.1779 49.2529 33.1779C49.5075 33.1779 49.7518 33.0777 49.9331 32.899C50.1144 32.7202 50.2181 32.4773 50.2217 32.2228Z" fill="#121212"/>
</svg>
