<svg width="100" height="80" viewBox="0 0 100 80" fill="none" xmlns="http://www.w3.org/2000/svg">
<path d="M21.0334 33.7021H78.9665C78.9665 33.7021 65.9876 34.8624 63.2353 35.1862C57.8656 35.8338 48.1247 36.1576 43.1327 35.7529C40.6503 35.564 21.0334 33.7021 21.0334 33.7021Z" fill="white"/>
<path d="M22.4365 39.8813H77.6443C77.6443 39.8813 67.7145 40.2051 62.6686 40.8527C57.6227 41.5003 46.9643 41.4194 42.4581 41.1765C39.7868 41.0416 37.5472 40.6908 34.0663 40.475C30.5855 40.2591 22.4635 39.8813 22.4635 39.8813H22.4365Z" fill="white"/>
<path d="M25.3237 46.0334H74.7571C74.7571 46.0334 65.8796 46.3033 61.3464 46.816C56.8132 47.3286 47.2881 47.2747 43.2406 47.0858C39.1931 46.8969 38.8423 46.681 35.7123 46.5191C32.5822 46.3572 25.3237 46.0334 25.3237 46.0334Z" fill="white"/>
<path d="M30.6665 52.1855H69.5224C69.5224 52.1855 62.5337 52.4554 58.972 52.9681C55.4102 53.4807 47.9088 53.4268 44.7518 53.2379C42.8899 53.13 41.2979 52.8331 38.8424 52.6712C36.387 52.5093 30.6665 52.1855 30.6665 52.1855Z" fill="white"/>
<path d="M59.5654 28.7642C58.8099 28.8181 57.9465 28.8451 57.2719 28.6562C56.4894 28.4674 55.464 27.9007 55.5989 27.0103C55.6799 26.6055 56.0306 26.2008 56.4894 25.6881C60.348 21.5596 65.9605 15.5424 69.6842 11.5488C69.7381 11.4949 69.7651 11.4679 69.7921 11.4139C69.8191 11.3869 69.8461 11.36 69.8731 11.333C69.4953 11.6838 68.7128 12.4933 67.3636 13.8154C64.0447 17.0804 59.5385 21.5866 56.1656 24.8516C55.0323 25.9849 54.2497 26.2277 53.0355 25.2833C52.1181 24.5818 51.5514 23.4754 51.2546 22.3421C49.7435 16.2439 49.5547 4.96492 49.2848 0C49.2309 0.269833 49.2578 0.782515 49.2309 1.26821C49.015 6.85375 48.8531 21.3708 46.1548 25.2294C45.696 26.0119 44.6167 26.4706 43.7802 25.9579C43.4295 25.769 43.0787 25.4182 42.6469 25.0135C39.1121 21.5866 30.7473 13.4647 28.6426 11.4409C30.5314 13.5186 33.5266 16.5947 35.8741 19.0502C37.5201 20.7771 38.8963 22.2342 40.2454 23.6373C41.001 24.4199 41.9454 25.4182 42.3231 26.2277C42.8628 27.2261 42.593 28.1975 41.3787 28.4943C40.7581 28.6562 40.1915 28.6562 39.4899 28.6562C34.3631 28.6023 26.9427 26.7134 23.8396 25.9849C27.9141 27.2801 33.8234 28.98 38.3836 30.1133C40.3534 30.599 42.3231 31.0577 44.3199 31.4355C44.3199 31.4355 44.3199 31.4355 44.3469 31.4355C44.9675 31.5434 45.5611 31.1927 45.804 30.626C46.3706 29.2768 47.7198 28.3324 49.2578 28.3324C50.7959 28.3324 52.28 29.3848 52.7926 30.8149C52.9815 31.3276 53.5212 31.6514 54.0609 31.5704C57.8655 31.0847 59.6734 30.4101 63.3971 29.4387C67.2017 28.4134 72.0857 27.0372 75.2967 25.9579C72.2476 26.5515 64.6653 28.2245 59.5924 28.6832L59.5654 28.7642Z" fill="white"/>
<path d="M3.37291 68.5101H1.96978C1.94279 68.5101 1.91581 68.5102 1.91581 68.4562C1.91581 68.4292 1.91581 68.4022 1.96978 68.4022C2.05073 68.4022 2.13168 68.3483 2.21263 68.2673C2.29358 68.1864 2.29358 68.0245 2.29358 67.8356V61.1977H1.48408C1.1333 61.1977 0.809498 61.2517 0.539665 61.3866C0.269833 61.5215 0.10793 61.6834 0.0809465 61.8723C0.0809465 61.8723 0.0809465 61.8993 0.0809465 61.9262C0.0809465 61.9532 0.080949 61.9262 0.0539657 61.9262C0.0269824 61.9262 0 61.9262 0 61.8723L0.161897 60.9548H5.23475L5.39665 61.8723C5.39665 61.9262 5.39665 61.9262 5.34268 61.9262C5.28872 61.9262 5.3157 61.9262 5.3157 61.9262C5.3157 61.9262 5.3157 61.9262 5.3157 61.8723C5.26174 61.6834 5.12682 61.5215 4.85699 61.3866C4.58716 61.2517 4.29034 61.1977 3.93955 61.1977H3.13006V67.8356C3.13006 67.9975 3.15704 68.1324 3.21101 68.2403C3.26497 68.3482 3.31894 68.4022 3.39989 68.4022H3.45386C3.48084 68.4022 3.50783 68.4022 3.50783 68.4562C3.50783 68.4832 3.50782 68.5101 3.45386 68.5101H3.37291Z" fill="white"/>
<path d="M12.844 68.5103H11.4408H11.4138C11.4138 68.5103 11.4138 68.5103 11.4138 68.4833C11.4138 68.4563 11.4138 68.4293 11.4408 68.4293H11.4948C11.5757 68.4293 11.6567 68.3754 11.7107 68.2674C11.7646 68.1595 11.7916 68.0246 11.7916 67.8627V64.8676H7.25842V67.8627C7.25842 68.0516 7.2854 68.2135 7.36635 68.2944C7.42031 68.3754 7.50126 68.4293 7.58221 68.4293C7.66316 68.4293 7.6092 68.4293 7.63618 68.4293C7.63618 68.4293 7.63618 68.4293 7.63618 68.4563C7.63618 68.4833 7.63618 68.4833 7.63618 68.4833C7.63618 68.4833 7.63618 68.4833 7.58221 68.4833H6.17908H6.1521C6.1521 68.4833 6.1521 68.4833 6.1521 68.4563C6.1521 68.4293 6.1521 68.4024 6.17908 68.4024H6.23305C6.314 68.4024 6.36797 68.3484 6.42193 68.2405C6.4759 68.1325 6.50288 67.9976 6.50288 67.8357V61.6296C6.50288 61.4407 6.4759 61.3058 6.42193 61.1978C6.36797 61.0899 6.28702 61.0629 6.20607 61.0629C6.12512 61.0629 6.17908 61.0629 6.17908 61.0629C6.17908 61.0629 6.17908 61.0629 6.17908 61.0359C6.17908 61.0089 6.17908 61.0089 6.17908 60.982C6.17908 60.982 6.17909 60.982 6.20607 60.982H7.6092C7.6092 60.982 7.63618 60.982 7.66316 60.982C7.69015 60.982 7.66316 60.982 7.66316 61.0359C7.66316 61.0899 7.66316 61.0629 7.66316 61.0629C7.66316 61.0629 7.66317 61.0629 7.6092 61.0629C7.52825 61.0629 7.4473 61.1169 7.39333 61.1978C7.33937 61.2788 7.2854 61.4407 7.2854 61.6296V64.6247H11.8186V61.6296C11.8186 61.4407 11.7916 61.3058 11.7376 61.1978C11.6837 61.0899 11.6027 61.0629 11.4948 61.0629C11.3869 61.0629 11.4678 61.0629 11.4678 61.0629C11.4678 61.0629 11.4678 61.0629 11.4678 61.0359C11.4678 61.0089 11.4678 61.0089 11.4678 60.982C11.4678 60.955 11.4678 60.982 11.4948 60.982H12.8979C12.8979 60.982 12.9249 60.982 12.9519 60.982C12.9519 60.982 12.9519 60.982 12.9519 61.0359C12.9519 61.0899 12.9519 61.0899 12.9519 61.0899C12.9519 61.0899 12.8979 61.0899 12.8709 61.0899C12.79 61.0899 12.736 61.1439 12.6821 61.2518C12.6281 61.3597 12.6011 61.4946 12.6011 61.6565V67.8627C12.6011 68.0246 12.6281 68.1595 12.6821 68.2674C12.736 68.3754 12.79 68.4293 12.8709 68.4293C12.9519 68.4293 12.9249 68.4293 12.9519 68.4293C12.9519 68.4293 12.9519 68.4293 12.9519 68.4833C12.9519 68.5373 12.9519 68.5103 12.9519 68.5103C12.9519 68.5103 12.9519 68.5103 12.8979 68.5103H12.844Z" fill="white"/>
<path d="M18.5104 68.5101H13.6804C13.6804 68.5101 13.6804 68.5101 13.6534 68.5101C13.6534 68.5101 13.6534 68.4832 13.6534 68.4562C13.6534 68.4562 13.6534 68.4292 13.6534 68.4022C13.6534 68.4022 13.6534 68.4022 13.6804 68.4022C13.7614 68.4022 13.8423 68.3483 13.9233 68.2673C13.9772 68.1864 14.0312 68.0245 14.0312 67.8356V61.6294C14.0312 61.4675 14.0042 61.3326 13.9503 61.2247C13.8963 61.1167 13.8153 61.0628 13.7614 61.0628C13.7074 61.0628 13.7074 61.0628 13.6804 61.0628C13.6804 61.0628 13.6804 61.0628 13.6804 61.0088C13.6804 61.0088 13.6804 60.9818 13.6804 60.9548C13.6804 60.9548 13.6804 60.9548 13.7074 60.9548H18.5374L18.6993 61.8723V61.8992C18.6993 61.8992 18.6993 61.8992 18.6453 61.8992C18.6453 61.8992 18.6453 61.8992 18.6184 61.8992C18.6184 61.7643 18.5374 61.6564 18.4025 61.5485C18.2676 61.4405 18.0787 61.3596 17.8628 61.3056C17.647 61.2517 17.4311 61.2247 17.1883 61.2247H14.8137V64.6785H17.1613C17.3232 64.6785 17.4581 64.6515 17.566 64.5976C17.6739 64.5436 17.7279 64.4627 17.7279 64.3817C17.7279 64.3008 17.7279 64.3277 17.7279 64.3277C17.7279 64.3277 17.7279 64.3277 17.7819 64.3277H17.8089C17.8089 64.3277 17.8089 64.3277 17.8089 64.3547V65.2182V65.2452C17.8089 65.2452 17.8089 65.2452 17.7819 65.2452C17.7819 65.2452 17.7549 65.2452 17.7279 65.2452C17.7279 65.2452 17.7279 65.2452 17.7279 65.1912C17.7279 65.1103 17.674 65.0293 17.593 64.9753C17.5121 64.9214 17.3502 64.8944 17.1613 64.8944H14.8137V68.3213H17.1883C17.539 68.3213 17.8628 68.2673 18.1327 68.1324C18.4025 67.9975 18.5644 67.8356 18.6184 67.6467C18.6184 67.5927 18.6184 67.5657 18.6993 67.5657C18.7263 67.5657 18.7533 67.5927 18.7533 67.6197L18.5914 68.5371L18.5104 68.5101Z" fill="white"/>
<path d="M23.988 68.5101H22.5848H22.5579C22.5579 68.5101 22.5579 68.5101 22.5579 68.4832C22.5579 68.4562 22.5579 68.4292 22.5848 68.4292H22.6388C22.7198 68.4292 22.7737 68.3752 22.8277 68.2673C22.8817 68.1594 22.9086 68.0244 22.9086 67.8625V61.6564C22.9086 61.4675 22.8817 61.3326 22.8277 61.2247C22.7737 61.1167 22.6928 61.0897 22.6118 61.0897C22.5309 61.0897 22.5848 61.0897 22.5848 61.0897C22.5848 61.0897 22.5848 61.0897 22.5848 61.0628C22.5848 61.0358 22.5848 61.0358 22.5848 61.0088C22.5848 61.0088 22.5848 61.0088 22.6118 61.0088H25.2022C25.634 61.0088 26.0117 61.0897 26.3355 61.2786C26.6863 61.4405 26.9561 61.6834 27.145 61.9802C27.3609 62.277 27.4418 62.6008 27.4418 62.9516C27.4418 63.3024 27.3339 63.6262 27.145 63.923C26.9292 64.2198 26.6593 64.4626 26.3355 64.6245C25.9847 64.7864 25.607 64.8944 25.2022 64.8944H23.6912V67.8895C23.6912 68.0784 23.7181 68.2403 23.7991 68.3213C23.8531 68.4022 23.934 68.4562 24.015 68.4562C24.0959 68.4562 24.0419 68.4562 24.0689 68.4562C24.0689 68.4562 24.0689 68.4562 24.0689 68.4832C24.0689 68.5101 24.0689 68.5101 24.0689 68.5101C24.0689 68.5101 24.0689 68.5101 24.015 68.5101H23.988ZM25.2022 64.6245C25.607 64.6245 25.9308 64.4626 26.2276 64.1119C26.4974 63.7881 26.6593 63.3833 26.6593 62.8976C26.6593 62.4119 26.5244 62.0072 26.2276 61.6834C25.9308 61.3596 25.607 61.1707 25.2022 61.1707H24.2578C24.0959 61.1707 23.961 61.1977 23.8531 61.2516C23.7451 61.3056 23.6912 61.3865 23.6912 61.4675V64.6245H25.2022Z" fill="white"/>
<path d="M32.7577 68.5103H31.4625C31.4356 68.5103 31.4086 68.5103 31.4086 68.4563C31.4086 68.4293 31.4086 68.4023 31.4356 68.4023H31.4895C31.5705 68.4023 31.6244 68.3214 31.6244 68.1595C31.6244 68.0785 31.3816 67.296 30.8689 65.812H28.1976L27.5769 67.6198C27.5769 67.6738 27.55 67.7008 27.523 67.7548C27.496 67.8357 27.469 67.8897 27.469 67.9436C27.469 67.9976 27.469 68.0516 27.469 68.1325V68.2674C27.469 68.3484 27.523 68.3754 27.6309 68.3754C27.7388 68.3754 27.6849 68.3754 27.7119 68.4293C27.7119 68.4563 27.7119 68.4833 27.6579 68.4833H26.8484C26.8214 68.4833 26.7944 68.4833 26.7944 68.4293C26.7944 68.3754 26.7944 68.3754 26.8754 68.3754C26.9563 68.3754 27.0643 68.3214 27.1452 68.2135C27.2262 68.1055 27.3071 67.9706 27.3611 67.8087L29.7356 60.928H29.9515L32.326 67.8087C32.38 67.9706 32.4609 68.1055 32.5419 68.2135C32.6228 68.3214 32.7308 68.3754 32.8117 68.3754C32.8927 68.3754 32.8657 68.3754 32.8927 68.4293C32.8927 68.4563 32.8927 68.4833 32.8387 68.4833L32.7577 68.5103ZM30.788 65.5961L29.5197 61.9803L28.2785 65.5961H30.788Z" fill="white"/>
<path d="M38.3971 68.5101H33.5941H33.5671C33.5671 68.5101 33.5671 68.5101 33.5671 68.4832C33.5671 68.4562 33.5671 68.4292 33.5941 68.4292H33.6481C33.729 68.4292 33.783 68.3752 33.837 68.2673C33.8909 68.1594 33.9179 68.0244 33.9179 67.8625V61.6564C33.9179 61.4675 33.8909 61.3326 33.837 61.2247C33.783 61.1167 33.7021 61.0897 33.6211 61.0897C33.5402 61.0897 33.5941 61.0897 33.5941 61.0897C33.5941 61.0897 33.5941 61.0897 33.5941 61.0628C33.5941 61.0358 33.5941 61.0358 33.5941 61.0088C33.5941 61.0088 33.5941 61.0088 33.6211 61.0088H35.0242C35.0242 61.0088 35.0512 61.0088 35.0782 61.0088C35.1052 61.0088 35.0782 61.0088 35.0782 61.0628C35.0782 61.1167 35.0782 61.1167 35.0782 61.1167C35.0782 61.1167 35.0242 61.1167 34.9972 61.1167C34.9163 61.1167 34.8623 61.1707 34.8084 61.2786C34.7544 61.3866 34.7274 61.5215 34.7274 61.6834V68.3213H37.1019C37.4797 68.3213 37.7765 68.2673 38.0464 68.1324C38.3162 67.9975 38.4511 67.8356 38.5051 67.6197C38.5051 67.6197 38.5051 67.6197 38.5051 67.5927C38.5051 67.5927 38.5051 67.5927 38.5321 67.5927C38.559 67.5927 38.586 67.5927 38.586 67.6467L38.4241 68.5641L38.3971 68.5101Z" fill="white"/>
<path d="M47.5445 68.5103H46.1413C46.1144 68.5103 46.0874 68.5103 46.0874 68.4563C46.0874 68.4293 46.0874 68.4023 46.1413 68.4023C46.2223 68.4023 46.3032 68.3754 46.3572 68.2944C46.4112 68.2135 46.4382 68.0785 46.4382 67.9166L46.0064 61.4676L43.3081 68.5103H43.0922L40.4209 61.4676L39.9622 67.9166C39.9622 68.0516 39.9622 68.1595 40.0431 68.2674C40.1241 68.3753 40.1511 68.4023 40.205 68.4023H40.259C40.286 68.4023 40.313 68.4023 40.313 68.4563C40.313 68.4833 40.3129 68.5103 40.259 68.5103H39.3955C39.3955 68.5103 39.3685 68.5103 39.3416 68.5103C39.3416 68.5103 39.3416 68.5103 39.3416 68.4833C39.3416 68.4563 39.3416 68.4563 39.3416 68.4563C39.3416 68.4563 39.3685 68.4563 39.3955 68.4563C39.4765 68.4563 39.5574 68.4023 39.6384 68.3214C39.6923 68.2135 39.7463 68.0785 39.7733 67.8897L40.205 61.6025C40.205 61.4676 40.205 61.3597 40.1511 61.2518C40.0971 61.1438 40.0431 61.1168 39.9891 61.1168H39.9352C39.9082 61.1168 39.8812 61.1168 39.8812 61.0629C39.8812 61.0089 39.8812 61.0089 39.9352 60.9819H41.0145L43.497 67.5658L46.0064 60.9819H47.0858C47.0858 60.9819 47.1127 60.9819 47.1397 60.9819C47.1397 60.9819 47.1397 61.0089 47.1397 61.0359C47.1397 61.0629 47.1397 61.0359 47.1397 61.0629C47.1397 61.0629 47.1397 61.0629 47.0858 61.0629C47.0048 61.0629 46.9239 61.0899 46.8699 61.1708C46.8159 61.2518 46.7889 61.3597 46.7889 61.5216L47.2207 67.8357C47.2207 67.9976 47.2746 68.1325 47.3286 68.2404C47.3826 68.3484 47.4635 68.4023 47.5445 68.4023H47.5715C47.5715 68.4023 47.5984 68.4023 47.6254 68.4023C47.6254 68.4023 47.6254 68.4023 47.6254 68.4293C47.6254 68.4563 47.6254 68.4293 47.6254 68.4563C47.6254 68.4563 47.5984 68.4563 47.5715 68.4563L47.5445 68.5103Z" fill="white"/>
<path d="M58.2299 68.5103H56.8268H56.7998C56.7998 68.5103 56.7998 68.5103 56.7998 68.4833C56.7998 68.4563 56.7998 68.4293 56.8268 68.4293H56.8808C56.9617 68.4293 57.0427 68.3754 57.0966 68.2674C57.1506 68.1595 57.1776 68.0246 57.1776 67.8627V64.8676H52.6444V67.8627C52.6444 68.0516 52.6714 68.2135 52.7523 68.2944C52.8063 68.3754 52.8872 68.4293 52.9682 68.4293C53.0491 68.4293 52.9952 68.4293 53.0222 68.4293C53.0222 68.4293 53.0222 68.4293 53.0222 68.4563C53.0222 68.4833 53.0222 68.4833 53.0222 68.4833C53.0222 68.4833 53.0222 68.4833 52.9682 68.4833H51.5651H51.5381C51.5381 68.4833 51.5381 68.4833 51.5381 68.4563C51.5381 68.4293 51.5381 68.4024 51.5651 68.4024H51.619C51.7 68.4024 51.754 68.3484 51.8079 68.2405C51.8619 68.1325 51.8889 67.9976 51.8889 67.8357V61.6296C51.8889 61.4407 51.8619 61.3058 51.8079 61.1978C51.754 61.1169 51.673 61.0629 51.592 61.0629C51.5111 61.0629 51.5651 61.0629 51.5651 61.0629C51.5651 61.0629 51.5651 61.0629 51.5651 61.0359C51.5651 61.0089 51.5651 61.0089 51.5651 60.982C51.5651 60.982 51.5651 60.982 51.592 60.982H52.9952C52.9952 60.982 53.0222 60.982 53.0492 60.982C53.0761 60.982 53.0492 60.982 53.0492 61.0359C53.0492 61.0899 53.0492 61.0629 53.0492 61.0629C53.0492 61.0629 53.0491 61.0629 52.9952 61.0629C52.9142 61.0629 52.8333 61.1169 52.7793 61.1978C52.7254 61.2788 52.6714 61.4407 52.6714 61.6296V64.6247H57.2046V61.6296C57.2046 61.4407 57.1776 61.3058 57.1236 61.1978C57.0697 61.0899 56.9887 61.0629 56.8808 61.0629C56.7728 61.0629 56.8538 61.0629 56.8538 61.0629C56.8538 61.0629 56.8538 61.0629 56.8538 61.0359C56.8538 61.0089 56.8538 61.0089 56.8538 60.982C56.8538 60.955 56.8538 60.982 56.8808 60.982H58.2839C58.2839 60.982 58.3109 60.982 58.3379 60.982C58.3379 60.982 58.3379 60.982 58.3379 61.0359C58.3379 61.0899 58.3379 61.0899 58.3379 61.0899C58.3379 61.0899 58.2839 61.0899 58.2569 61.0899C58.176 61.0899 58.122 61.1439 58.068 61.2518C58.0141 61.3597 57.9871 61.4946 57.9871 61.6565V67.8627C57.9871 68.0246 58.0141 68.1595 58.068 68.2674C58.122 68.3754 58.176 68.4293 58.2569 68.4293C58.3379 68.4293 58.3109 68.4293 58.3379 68.4293C58.3379 68.4293 58.3379 68.4293 58.3379 68.4833C58.3379 68.5373 58.3379 68.5103 58.3379 68.5103C58.3379 68.5103 58.3379 68.5103 58.2839 68.5103H58.2299Z" fill="white"/>
<path d="M60.4694 68.5101H59.0663H59.0393C59.0393 68.5101 59.0393 68.5101 59.0393 68.4832C59.0393 68.4562 59.0393 68.4292 59.0663 68.4292H59.1203C59.2012 68.4292 59.2552 68.3752 59.3091 68.2673C59.3631 68.1594 59.3901 68.0244 59.3901 67.8625V61.6564C59.3901 61.4675 59.3631 61.3326 59.3091 61.2247C59.2552 61.1437 59.1742 61.0897 59.0933 61.0897C59.0123 61.0897 59.0663 61.0897 59.0663 61.0897C59.0663 61.0897 59.0663 61.0897 59.0663 61.0628C59.0663 61.0358 59.0663 61.0358 59.0663 61.0088C59.0663 61.0088 59.0663 61.0088 59.0933 61.0088H60.4964C60.4964 61.0088 60.5234 61.0088 60.5504 61.0088C60.5774 61.0088 60.5504 61.0088 60.5504 61.0628C60.5504 61.1167 60.5504 61.1167 60.5504 61.1167C60.5504 61.1167 60.4964 61.1167 60.4694 61.1167C60.3885 61.1167 60.3345 61.1707 60.2805 61.2786C60.2266 61.3866 60.1996 61.5215 60.1996 61.6834V67.8895C60.1996 68.0784 60.2266 68.2403 60.3075 68.3213C60.3615 68.4022 60.4424 68.4562 60.5234 68.4562C60.6043 68.4562 60.5504 68.4562 60.5774 68.4562C60.5774 68.4562 60.5774 68.4562 60.5774 68.4832C60.5774 68.5101 60.5774 68.5101 60.5774 68.5101C60.5774 68.5101 60.5774 68.5101 60.5234 68.5101H60.4694Z" fill="white"/>
<path d="M64.2742 68.5102H61.306H61.2791C61.2791 68.5102 61.2791 68.5102 61.2791 68.4832C61.2791 68.4562 61.279 68.4292 61.306 68.4292H61.36C61.4409 68.4292 61.4949 68.3752 61.5489 68.2673C61.6029 68.1594 61.6298 68.0245 61.6298 67.8626V61.6564C61.6298 61.4675 61.6029 61.3326 61.5489 61.2247C61.4949 61.1437 61.414 61.0898 61.333 61.0898C61.2521 61.0898 61.306 61.0898 61.306 61.0898C61.306 61.0898 61.306 61.0898 61.306 61.0628C61.306 61.0358 61.306 61.0358 61.306 61.0088C61.306 60.9818 61.306 61.0088 61.333 61.0088H64.3012C65.0027 61.0088 65.6234 61.1707 66.19 61.5215C66.7567 61.8723 67.2154 62.331 67.5662 62.8976C67.9169 63.4643 68.0788 64.1119 68.0788 64.8135C68.0788 65.515 67.9169 66.1356 67.5662 66.7023C67.2154 67.2689 66.7567 67.7276 66.19 68.0784C65.6234 68.4292 64.9758 68.5911 64.3012 68.5911L64.2742 68.5102ZM64.2742 68.2943C64.8139 68.2943 65.2996 68.1324 65.7583 67.8086C66.217 67.4848 66.5678 67.0531 66.8376 66.5134C67.1074 65.9737 67.2423 65.3801 67.2423 64.7325C67.2423 64.0849 67.1074 63.4913 66.8376 62.9516C66.5678 62.4119 66.217 61.9802 65.7583 61.6564C65.2996 61.3326 64.8139 61.1707 64.2742 61.1707H62.3854V68.2673H64.2742V68.2943Z" fill="white"/>
<path d="M73.6373 68.5102H68.8073C68.8073 68.5102 68.8073 68.5102 68.7803 68.5102C68.7803 68.5102 68.7803 68.4832 68.7803 68.4562C68.7803 68.4562 68.7803 68.4292 68.7803 68.4022C68.7803 68.3753 68.7803 68.4022 68.8073 68.4022C68.8882 68.4022 68.9692 68.3483 69.0501 68.2673C69.1041 68.1864 69.158 68.0245 69.158 67.8356V61.6294C69.158 61.4675 69.1311 61.3326 69.0771 61.2247C69.0231 61.1168 68.9422 61.0628 68.8882 61.0628C68.8342 61.0628 68.8342 61.0628 68.8073 61.0628C68.7803 61.0628 68.8073 61.0628 68.8073 61.0088C68.8073 61.0088 68.8073 60.9818 68.8073 60.9549C68.8073 60.9279 68.8073 60.9549 68.8342 60.9549H73.6642L73.8261 61.8723V61.8993C73.8261 61.8993 73.8261 61.8993 73.7722 61.8993C73.7722 61.8993 73.7722 61.8993 73.7452 61.8993C73.7452 61.7644 73.6642 61.6564 73.5293 61.5485C73.3944 61.4406 73.2055 61.3596 72.9897 61.3057C72.7738 61.2517 72.5579 61.2247 72.3151 61.2247H69.9406V64.6786H72.2881C72.45 64.6786 72.5849 64.6516 72.6928 64.5976C72.8008 64.5436 72.8547 64.4627 72.8547 64.3817C72.8547 64.3008 72.8547 64.3278 72.8547 64.3278C72.8547 64.3278 72.8547 64.3278 72.9087 64.3278H72.9357C72.9357 64.3278 72.9357 64.3278 72.9357 64.3548V65.2182V65.2452C72.9357 65.2452 72.9357 65.2452 72.9087 65.2452C72.9087 65.2452 72.8817 65.2452 72.8547 65.2452C72.8278 65.2452 72.8547 65.2452 72.8547 65.1912C72.8547 65.1103 72.8008 65.0293 72.7198 64.9754C72.6389 64.9214 72.477 64.8944 72.2881 64.8944H69.9406V68.3213H72.3151C72.6659 68.3213 72.9897 68.2673 73.2595 68.1324C73.5293 67.9975 73.6912 67.8356 73.7452 67.6467C73.7452 67.5928 73.7452 67.5658 73.8261 67.5658C73.8531 67.5658 73.8801 67.5928 73.8801 67.6197L73.7182 68.5372L73.6373 68.5102Z" fill="white"/>
<path d="M80.518 68.5103H79.2228C79.1958 68.5103 79.1688 68.5103 79.1688 68.4563C79.1688 68.4293 79.1688 68.4023 79.1958 68.4023H79.2498C79.3307 68.4023 79.3847 68.3214 79.3847 68.1595C79.3847 68.0785 79.1418 67.296 78.6292 65.812H75.9578L75.3372 67.6198C75.3372 67.6738 75.3102 67.7008 75.2832 67.7548C75.2563 67.8357 75.2293 67.8897 75.2293 67.9436C75.2293 67.9976 75.2293 68.0516 75.2293 68.1325V68.2674C75.2293 68.3484 75.2832 68.3754 75.3912 68.3754C75.4991 68.3754 75.4451 68.3754 75.4721 68.4293C75.4721 68.4563 75.4721 68.4833 75.4182 68.4833H74.6087C74.5817 68.4833 74.5547 68.4833 74.5547 68.4293C74.5547 68.3754 74.5547 68.3754 74.6356 68.3754C74.7166 68.3754 74.8245 68.3214 74.9055 68.2135C74.9864 68.1055 75.0674 67.9706 75.1213 67.8087L77.4959 60.928H77.7117L80.0863 67.8087C80.1402 67.9706 80.2212 68.1055 80.3021 68.2135C80.3831 68.3214 80.491 68.3754 80.572 68.3754C80.6529 68.3754 80.6259 68.3754 80.6529 68.4293C80.6529 68.4563 80.6529 68.4833 80.5989 68.4833L80.518 68.5103ZM78.5482 65.5961L77.28 61.9803L76.0388 65.5961H78.5482Z" fill="white"/>
<path d="M87.3447 68.5101H87.1289L84.8623 61.9802L82.5957 68.5101H82.3798L80.0053 61.6294C79.9513 61.4675 79.8704 61.3326 79.7894 61.2247C79.7085 61.1167 79.6275 61.0628 79.5466 61.0628C79.4656 61.0628 79.4926 61.0628 79.4926 61.0628C79.4926 61.0628 79.4926 61.0628 79.4926 61.0088C79.4926 60.9548 79.4926 60.9818 79.4926 60.9548C79.4926 60.9548 79.4926 60.9548 79.5196 60.9548H80.8148C80.8418 60.9548 80.8687 60.9548 80.8687 61.0358C80.8687 61.0628 80.8687 61.0898 80.8148 61.0898C80.7608 61.0898 80.7338 61.0898 80.6799 61.1437C80.6529 61.1707 80.6259 61.2247 80.6259 61.3326C80.6259 61.4405 80.6259 61.5485 80.7068 61.6834L82.7306 67.5388L84.9972 60.9818H85.1861L87.4527 67.5388L89.4764 61.6834C89.5304 61.5485 89.5574 61.4405 89.5574 61.3326C89.5574 61.1977 89.5034 61.1167 89.4224 61.1167H89.3685C89.3685 61.1167 89.3685 61.1167 89.3415 61.1167C89.3415 61.1167 89.3415 61.1167 89.3415 61.0898C89.3415 61.0898 89.3415 61.0628 89.3415 61.0358C89.3415 61.0358 89.3415 61.0358 89.3685 61.0358H90.178H90.205C90.205 61.0358 90.205 61.0628 90.205 61.0898C90.205 61.1167 90.205 61.1437 90.151 61.1437C90.07 61.1437 89.9891 61.1977 89.8812 61.2786C89.7732 61.3596 89.7193 61.5215 89.6383 61.7104L87.2638 68.5911L87.3447 68.5101Z" fill="white"/>
<path d="M95.143 68.5103H93.8478C93.8208 68.5103 93.7938 68.5103 93.7938 68.4563C93.7938 68.4293 93.7938 68.4023 93.8208 68.4023H93.8748C93.9557 68.4023 94.0097 68.3214 94.0097 68.1595C94.0097 68.0785 93.7668 67.296 93.2542 65.812H90.5828L89.9622 67.6198C89.9622 67.6738 89.9352 67.7008 89.9082 67.7548C89.8812 67.8357 89.8543 67.8897 89.8543 67.9436C89.8543 67.9976 89.8543 68.0516 89.8543 68.1325V68.2674C89.8543 68.3484 89.9082 68.3754 90.0162 68.3754C90.1241 68.3754 90.0701 68.3754 90.0971 68.4293C90.0971 68.4563 90.0971 68.4833 90.0431 68.4833H89.2336C89.2067 68.4833 89.1797 68.4833 89.1797 68.4293C89.1797 68.3754 89.1797 68.3754 89.2606 68.3754C89.3416 68.3754 89.4495 68.3214 89.5305 68.2135C89.6114 68.1055 89.6924 67.9706 89.7463 67.8087L92.1209 60.928H92.3367L94.7112 67.8087C94.7652 67.9706 94.8462 68.1055 94.9271 68.2135C95.0081 68.3214 95.116 68.3754 95.197 68.3754C95.2779 68.3754 95.2509 68.3754 95.2779 68.4293C95.2779 68.4563 95.2779 68.4833 95.2239 68.4833L95.143 68.5103ZM93.1732 65.5961L91.905 61.9803L90.6638 65.5961H93.1732Z" fill="white"/>
<path d="M97.8413 68.5101H96.4381C96.4381 68.5101 96.4112 68.5101 96.3842 68.5101C96.3842 68.5101 96.3842 68.5101 96.3842 68.4832C96.3842 68.4562 96.3842 68.4562 96.3842 68.4562C96.3842 68.4562 96.4112 68.4562 96.4381 68.4562C96.5191 68.4562 96.6 68.4022 96.654 68.3213C96.708 68.2133 96.7349 68.0784 96.7349 67.8895V64.8134L94.7652 61.6834C94.6572 61.5215 94.5493 61.3866 94.4144 61.2786C94.2795 61.1707 94.1985 61.1167 94.1176 61.1167C94.0366 61.1167 94.0636 61.1167 94.0636 61.1167C94.0636 61.1167 94.0366 61.1167 94.0366 61.0628C94.0366 61.0088 94.0366 61.0358 94.0366 61.0088C94.0366 61.0088 94.0636 61.0088 94.0906 61.0088H95.6017C95.6286 61.0088 95.6556 61.0088 95.6556 61.0897C95.6556 61.0897 95.6556 61.0897 95.6556 61.1167C95.6556 61.1167 95.6556 61.1167 95.6286 61.1167C95.5747 61.1167 95.5477 61.1167 95.5207 61.1167C95.4937 61.1167 95.4937 61.1707 95.4937 61.2247C95.4937 61.3326 95.5477 61.4675 95.6556 61.6564L97.3556 64.3277L99.0555 61.6564C99.1635 61.4675 99.2174 61.3056 99.2174 61.2247C99.2174 61.1437 99.2174 61.1167 99.1904 61.1167C99.1635 61.1167 99.1365 61.1167 99.0825 61.1167C99.0285 61.1167 99.0285 61.1167 99.0285 61.0628C99.0285 61.0628 99.0285 61.0358 99.0285 61.0088C99.0285 61.0088 99.0285 61.0088 99.0555 61.0088H99.946C99.946 61.0088 99.973 61.0088 99.9999 61.0088C99.9999 61.0088 99.9999 61.0358 99.9999 61.0628C99.9999 61.0897 99.9999 61.0628 99.9999 61.0897C99.9999 61.0897 99.9729 61.0897 99.946 61.0897C99.865 61.0897 99.7571 61.1437 99.6222 61.2247C99.5142 61.3056 99.3793 61.4675 99.2444 61.6564L97.4905 64.4626V67.8625C97.4905 68.0514 97.5175 68.2133 97.5984 68.2943C97.6524 68.3752 97.7333 68.4292 97.8413 68.4292C97.9492 68.4292 97.8413 68.4292 97.8682 68.4292C97.8682 68.4292 97.8682 68.4292 97.8682 68.4562C97.8682 68.4832 97.8682 68.4562 97.8682 68.4832C97.8682 68.4832 97.8683 68.4832 97.8413 68.4832V68.5101Z" fill="white"/>
<path d="M36.7243 79.9044L35.7529 78.7171C35.6449 78.7171 35.537 78.7171 35.4021 78.7171H34.2688V79.8774H33.8101V76.1807H35.4021C36.4814 76.1807 37.129 76.6664 37.129 77.4489C37.129 78.2314 36.7782 78.4473 36.1576 78.6092L37.183 79.8774H36.6973L36.7243 79.9044ZM36.6973 77.4759C36.6973 76.8822 36.2386 76.5584 35.4021 76.5584H34.2688V78.4203H35.4021C36.2655 78.4203 36.6973 78.0695 36.6973 77.5028V77.4759Z" fill="white"/>
<path d="M42.7954 79.5535V79.9042H39.8003V76.2075H42.7145V76.5583H40.259V77.8805H42.4447V78.2043H40.259V79.5804H42.8224L42.7954 79.5535Z" fill="white"/>
<path d="M45.035 79.4455L45.2239 79.1487C45.5207 79.4185 46.0604 79.6074 46.6271 79.6074C47.4096 79.6074 47.7604 79.3106 47.7604 78.9598C47.7604 77.9345 45.143 78.5551 45.143 77.2059C45.143 75.8567 45.6287 76.1805 46.708 76.1805C47.7873 76.1805 47.6794 76.3155 48.0302 76.5043L47.8683 76.8281C47.4905 76.6123 47.0858 76.5313 46.708 76.5313C45.9255 76.5313 45.5747 76.8281 45.5747 77.2059C45.5747 78.2313 48.1921 77.6107 48.1921 78.9598C48.1921 80.309 47.7064 79.9582 46.6001 79.9582C45.4938 79.9582 45.3319 79.7693 45.0081 79.4725L45.035 79.4455Z" fill="white"/>
<path d="M50.3777 78.0424C50.3777 76.9631 51.3221 76.1536 52.6173 76.1536C53.9125 76.1536 54.8569 76.9631 54.8569 78.0424C54.8569 79.1217 53.9125 79.9312 52.6173 79.9312C51.3221 79.9312 50.3777 79.1217 50.3777 78.0424ZM54.3982 78.0424C54.3982 77.1519 53.6427 76.5043 52.6173 76.5043C51.5919 76.5043 50.8364 77.1519 50.8364 78.0424C50.8364 78.9328 51.5919 79.5804 52.6173 79.5804C53.6427 79.5804 54.3982 78.9328 54.3982 78.0424Z" fill="white"/>
<path d="M60.3615 79.9044L59.3901 78.7171C59.2821 78.7171 59.1742 78.7171 59.0393 78.7171H57.906V79.8774H57.4473V76.1807H59.0393C60.1186 76.1807 60.7662 76.6664 60.7662 77.4489C60.7662 78.2314 60.4154 78.4473 59.7948 78.6092L60.8202 79.8774H60.3345L60.3615 79.9044ZM60.3345 77.4759C60.3345 76.8822 59.8758 76.5584 59.0393 76.5584H57.906V78.4203H59.0393C59.9027 78.4203 60.3345 78.0695 60.3345 77.5028V77.4759Z" fill="white"/>
<path d="M64.2473 76.5314H62.7632V76.1807H66.1901V76.5314H64.706V79.9044H64.2473V76.5314Z" fill="white"/>
</svg>
