<svg width="100" height="80" viewBox="0 0 100 80" fill="none" xmlns="http://www.w3.org/2000/svg">
<path d="M21.0334 33.7021H78.9665C78.9665 33.7021 65.9876 34.8624 63.2353 35.1862C57.8656 35.8338 48.1247 36.1576 43.1327 35.7529C40.6503 35.564 21.0334 33.7021 21.0334 33.7021Z" fill="#8EFFEC"/>
<path d="M22.4365 39.8813H77.6443C77.6443 39.8813 67.7145 40.2051 62.6686 40.8527C57.6227 41.5003 46.9643 41.4194 42.4581 41.1765C39.7868 41.0416 37.5472 40.6908 34.0663 40.475C30.5855 40.2591 22.4635 39.8813 22.4635 39.8813H22.4365Z" fill="#8EFFEC"/>
<path d="M25.3237 46.0337H74.7571C74.7571 46.0337 65.8796 46.3035 61.3464 46.8162C56.8132 47.3289 47.2881 47.2749 43.2406 47.086C39.1931 46.8972 38.8423 46.6813 35.7123 46.5194C32.5822 46.3575 25.3237 46.0337 25.3237 46.0337Z" fill="#8EFFEC"/>
<path d="M30.6665 52.1855H69.5224C69.5224 52.1855 62.5337 52.4554 58.972 52.9681C55.4102 53.4807 47.9088 53.4268 44.7518 53.2379C42.8899 53.13 41.2979 52.8331 38.8424 52.6712C36.387 52.5093 30.6665 52.1855 30.6665 52.1855Z" fill="#8EFFEC"/>
<path d="M59.5654 28.7642C58.8099 28.8181 57.9465 28.8451 57.2719 28.6562C56.4894 28.4674 55.464 27.9007 55.5989 27.0103C55.6799 26.6055 56.0306 26.2008 56.4894 25.6881C60.348 21.5596 65.9605 15.5424 69.6842 11.5488C69.7381 11.4949 69.7651 11.4679 69.7921 11.4139C69.8191 11.3869 69.8461 11.36 69.8731 11.333C69.4953 11.6838 68.7128 12.4933 67.3636 13.8154C64.0447 17.0804 59.5385 21.5866 56.1656 24.8516C55.0323 25.9849 54.2497 26.2277 53.0355 25.2833C52.1181 24.5818 51.5514 23.4754 51.2546 22.3421C49.7435 16.2439 49.5547 4.96492 49.2848 0C49.2309 0.269833 49.2578 0.782515 49.2309 1.26821C49.015 6.85375 48.8531 21.3708 46.1548 25.2294C45.696 26.0119 44.6167 26.4706 43.7802 25.9579C43.4295 25.769 43.0787 25.4182 42.6469 25.0135C39.1121 21.5866 30.7473 13.4647 28.6426 11.4409C30.5314 13.5186 33.5266 16.5947 35.8741 19.0502C37.5201 20.7771 38.8963 22.2342 40.2454 23.6373C41.001 24.4199 41.9454 25.4182 42.3231 26.2277C42.8628 27.2261 42.593 28.1975 41.3787 28.4943C40.7581 28.6562 40.1915 28.6562 39.4899 28.6562C34.3631 28.6023 26.9427 26.7134 23.8396 25.9849C27.9141 27.2801 33.8234 28.98 38.3836 30.1133C40.3534 30.599 42.3231 31.0577 44.3199 31.4355C44.3199 31.4355 44.3199 31.4355 44.3469 31.4355C44.9675 31.5434 45.5611 31.1927 45.804 30.626C46.3706 29.2768 47.7198 28.3324 49.2578 28.3324C50.7959 28.3324 52.28 29.3848 52.7926 30.8149C52.9815 31.3276 53.5212 31.6514 54.0609 31.5704C57.8655 31.0847 59.6734 30.4101 63.3971 29.4387C67.2017 28.4134 72.0857 27.0372 75.2967 25.9579C72.2476 26.5515 64.6653 28.2245 59.5924 28.6832L59.5654 28.7642Z" fill="#8EFFEC"/>
<path d="M3.37291 68.5099H1.96978C1.94279 68.5099 1.91581 68.5099 1.91581 68.4559C1.91581 68.429 1.91581 68.402 1.96978 68.402C2.05073 68.402 2.13168 68.348 2.21263 68.2671C2.29358 68.1861 2.29358 68.0242 2.29358 67.8353V61.1974H1.48408C1.1333 61.1974 0.809498 61.2514 0.539665 61.3863C0.269833 61.5212 0.10793 61.6831 0.0809465 61.872C0.0809465 61.872 0.0809465 61.899 0.0809465 61.926C0.0809465 61.953 0.080949 61.926 0.0539657 61.926C0.0269824 61.926 0 61.926 0 61.872L0.161897 60.9546H5.23475L5.39665 61.872C5.39665 61.926 5.39665 61.926 5.34268 61.926C5.28872 61.926 5.3157 61.926 5.3157 61.926C5.3157 61.926 5.3157 61.926 5.3157 61.872C5.26174 61.6831 5.12682 61.5212 4.85699 61.3863C4.58716 61.2514 4.29034 61.1974 3.93955 61.1974H3.13006V67.8353C3.13006 67.9972 3.15704 68.1321 3.21101 68.2401C3.26497 68.348 3.31894 68.402 3.39989 68.402H3.45386C3.48084 68.402 3.50783 68.402 3.50783 68.4559C3.50783 68.4829 3.50782 68.5099 3.45386 68.5099H3.37291Z" fill="#8EFFEC"/>
<path d="M12.844 68.51H11.4408H11.4138C11.4138 68.51 11.4138 68.51 11.4138 68.4831C11.4138 68.4561 11.4138 68.4291 11.4408 68.4291H11.4948C11.5757 68.4291 11.6567 68.3751 11.7107 68.2672C11.7646 68.1593 11.7916 68.0244 11.7916 67.8625V64.8673H7.25842V67.8625C7.25842 68.0513 7.2854 68.2132 7.36635 68.2942C7.42031 68.3751 7.50126 68.4291 7.58221 68.4291C7.66316 68.4291 7.6092 68.4291 7.63618 68.4291C7.63618 68.4291 7.63618 68.4291 7.63618 68.4561C7.63618 68.4831 7.63618 68.4831 7.63618 68.4831C7.63618 68.4831 7.63618 68.4831 7.58221 68.4831H6.17908H6.1521C6.1521 68.4831 6.1521 68.4831 6.1521 68.4561C6.1521 68.4291 6.1521 68.4021 6.17908 68.4021H6.23305C6.314 68.4021 6.36797 68.3482 6.42193 68.2402C6.4759 68.1323 6.50288 67.9974 6.50288 67.8355V61.6293C6.50288 61.4404 6.4759 61.3055 6.42193 61.1976C6.36797 61.0896 6.28702 61.0627 6.20607 61.0627C6.12512 61.0627 6.17908 61.0627 6.17908 61.0627C6.17908 61.0627 6.17908 61.0627 6.17908 61.0357C6.17908 61.0087 6.17908 61.0087 6.17908 60.9817C6.17908 60.9817 6.17909 60.9817 6.20607 60.9817H7.6092C7.6092 60.9817 7.63618 60.9817 7.66316 60.9817C7.69015 60.9817 7.66316 60.9817 7.66316 61.0357C7.66316 61.0897 7.66316 61.0627 7.66316 61.0627C7.66316 61.0627 7.66317 61.0627 7.6092 61.0627C7.52825 61.0627 7.4473 61.1166 7.39333 61.1976C7.33937 61.2785 7.2854 61.4404 7.2854 61.6293V64.6245H11.8186V61.6293C11.8186 61.4404 11.7916 61.3055 11.7376 61.1976C11.6837 61.0896 11.6027 61.0627 11.4948 61.0627C11.3869 61.0627 11.4678 61.0627 11.4678 61.0627C11.4678 61.0627 11.4678 61.0627 11.4678 61.0357C11.4678 61.0087 11.4678 61.0087 11.4678 60.9817C11.4678 60.9547 11.4678 60.9817 11.4948 60.9817H12.8979C12.8979 60.9817 12.9249 60.9817 12.9519 60.9817C12.9519 60.9817 12.9519 60.9817 12.9519 61.0357C12.9519 61.0897 12.9519 61.0897 12.9519 61.0897C12.9519 61.0897 12.8979 61.0897 12.8709 61.0897C12.79 61.0897 12.736 61.1436 12.6821 61.2516C12.6281 61.3595 12.6011 61.4944 12.6011 61.6563V67.8625C12.6011 68.0244 12.6281 68.1593 12.6821 68.2672C12.736 68.3751 12.79 68.4291 12.8709 68.4291C12.9519 68.4291 12.9249 68.4291 12.9519 68.4291C12.9519 68.4291 12.9519 68.4291 12.9519 68.4831C12.9519 68.537 12.9519 68.51 12.9519 68.51C12.9519 68.51 12.9519 68.51 12.8979 68.51H12.844Z" fill="#8EFFEC"/>
<path d="M18.5106 68.5099H13.6805C13.6805 68.5099 13.6805 68.5099 13.6536 68.5099C13.6536 68.5099 13.6536 68.4829 13.6536 68.4559C13.6536 68.4559 13.6536 68.429 13.6536 68.402C13.6536 68.402 13.6536 68.402 13.6805 68.402C13.7615 68.402 13.8424 68.348 13.9234 68.2671C13.9774 68.1861 14.0313 68.0242 14.0313 67.8353V61.6292C14.0313 61.4673 14.0043 61.3324 13.9504 61.2244C13.8964 61.1165 13.8155 61.0625 13.7615 61.0625C13.7075 61.0625 13.7075 61.0625 13.6805 61.0625C13.6805 61.0625 13.6805 61.0625 13.6805 61.0086C13.6805 61.0086 13.6805 60.9816 13.6805 60.9546C13.6805 60.9546 13.6805 60.9546 13.7075 60.9546H18.5375L18.6994 61.872V61.899C18.6994 61.899 18.6994 61.899 18.6455 61.899C18.6455 61.899 18.6455 61.899 18.6185 61.899C18.6185 61.7641 18.5375 61.6562 18.4026 61.5482C18.2677 61.4403 18.0788 61.3593 17.863 61.3054C17.6471 61.2514 17.4312 61.2244 17.1884 61.2244H14.8138V64.6783H17.1614C17.3233 64.6783 17.4582 64.6513 17.5661 64.5973C17.6741 64.5434 17.728 64.4624 17.728 64.3815C17.728 64.3005 17.728 64.3275 17.728 64.3275C17.728 64.3275 17.728 64.3275 17.782 64.3275H17.809C17.809 64.3275 17.809 64.3275 17.809 64.3545V65.218V65.2449C17.809 65.2449 17.809 65.2449 17.782 65.2449C17.782 65.2449 17.755 65.2449 17.728 65.2449C17.728 65.2449 17.728 65.2449 17.728 65.191C17.728 65.11 17.6741 65.0291 17.5931 64.9751C17.5122 64.9211 17.3503 64.8941 17.1614 64.8941H14.8138V68.321H17.1884C17.5392 68.321 17.863 68.2671 18.1328 68.1321C18.4026 67.9972 18.5645 67.8353 18.6185 67.6464C18.6185 67.5925 18.6185 67.5655 18.6994 67.5655C18.7264 67.5655 18.7534 67.5925 18.7534 67.6195L18.5915 68.5369L18.5106 68.5099Z" fill="#8EFFEC"/>
<path d="M23.988 68.5101H22.5848H22.5579C22.5579 68.5101 22.5579 68.5101 22.5579 68.4832C22.5579 68.4562 22.5579 68.4292 22.5848 68.4292H22.6388C22.7198 68.4292 22.7737 68.3752 22.8277 68.2673C22.8817 68.1594 22.9086 68.0244 22.9086 67.8625V61.6564C22.9086 61.4675 22.8817 61.3326 22.8277 61.2247C22.7737 61.1167 22.6928 61.0897 22.6118 61.0897C22.5309 61.0897 22.5848 61.0897 22.5848 61.0897C22.5848 61.0897 22.5848 61.0897 22.5848 61.0628C22.5848 61.0358 22.5848 61.0358 22.5848 61.0088C22.5848 61.0088 22.5848 61.0088 22.6118 61.0088H25.2022C25.634 61.0088 26.0117 61.0897 26.3355 61.2786C26.6863 61.4405 26.9561 61.6834 27.145 61.9802C27.3609 62.277 27.4418 62.6008 27.4418 62.9516C27.4418 63.3024 27.3339 63.6262 27.145 63.923C26.9292 64.2198 26.6593 64.4626 26.3355 64.6245C25.9847 64.7864 25.607 64.8944 25.2022 64.8944H23.6912V67.8895C23.6912 68.0784 23.7181 68.2403 23.7991 68.3213C23.8531 68.4022 23.934 68.4562 24.015 68.4562C24.0959 68.4562 24.0419 68.4562 24.0689 68.4562C24.0689 68.4562 24.0689 68.4562 24.0689 68.4832C24.0689 68.5101 24.0689 68.5101 24.0689 68.5101C24.0689 68.5101 24.0689 68.5101 24.015 68.5101H23.988ZM25.2022 64.6245C25.607 64.6245 25.9308 64.4626 26.2276 64.1119C26.4974 63.7881 26.6593 63.3833 26.6593 62.8976C26.6593 62.4119 26.5244 62.0072 26.2276 61.6834C25.9308 61.3596 25.607 61.1707 25.2022 61.1707H24.2578C24.0959 61.1707 23.961 61.1977 23.8531 61.2516C23.7451 61.3056 23.6912 61.3865 23.6912 61.4675V64.6245H25.2022Z" fill="#8EFFEC"/>
<path d="M32.7577 68.51H31.4625C31.4356 68.51 31.4086 68.51 31.4086 68.4561C31.4086 68.4291 31.4086 68.4021 31.4356 68.4021H31.4895C31.5705 68.4021 31.6244 68.3212 31.6244 68.1593C31.6244 68.0783 31.3816 67.2958 30.8689 65.8117H28.1976L27.5769 67.6196C27.5769 67.6736 27.55 67.7005 27.523 67.7545C27.496 67.8355 27.469 67.8894 27.469 67.9434C27.469 67.9974 27.469 68.0513 27.469 68.1323V68.2672C27.469 68.3481 27.523 68.3751 27.6309 68.3751C27.7388 68.3751 27.6849 68.3751 27.7119 68.4291C27.7119 68.4561 27.7119 68.483 27.6579 68.483H26.8484C26.8214 68.483 26.7944 68.4831 26.7944 68.4291C26.7944 68.3751 26.7944 68.3751 26.8754 68.3751C26.9563 68.3751 27.0643 68.3212 27.1452 68.2132C27.2262 68.1053 27.3071 67.9704 27.3611 67.8085L29.7356 60.9277H29.9515L32.326 67.8085C32.38 67.9704 32.4609 68.1053 32.5419 68.2132C32.6228 68.3212 32.7308 68.3751 32.8117 68.3751C32.8927 68.3751 32.8657 68.3751 32.8927 68.4291C32.8927 68.4561 32.8927 68.483 32.8387 68.483L32.7577 68.51ZM30.788 65.5958L29.5197 61.9801L28.2785 65.5958H30.788Z" fill="#8EFFEC"/>
<path d="M38.3971 68.5101H33.5941H33.5671C33.5671 68.5101 33.5671 68.5101 33.5671 68.4832C33.5671 68.4562 33.5671 68.4292 33.5941 68.4292H33.6481C33.729 68.4292 33.783 68.3752 33.837 68.2673C33.8909 68.1594 33.9179 68.0244 33.9179 67.8625V61.6564C33.9179 61.4675 33.8909 61.3326 33.837 61.2247C33.783 61.1167 33.7021 61.0897 33.6211 61.0897C33.5402 61.0897 33.5941 61.0897 33.5941 61.0897C33.5941 61.0897 33.5941 61.0897 33.5941 61.0628C33.5941 61.0358 33.5941 61.0358 33.5941 61.0088C33.5941 61.0088 33.5941 61.0088 33.6211 61.0088H35.0242C35.0242 61.0088 35.0512 61.0088 35.0782 61.0088C35.1052 61.0088 35.0782 61.0088 35.0782 61.0628C35.0782 61.1167 35.0782 61.1167 35.0782 61.1167C35.0782 61.1167 35.0242 61.1167 34.9972 61.1167C34.9163 61.1167 34.8623 61.1707 34.8084 61.2786C34.7544 61.3866 34.7274 61.5215 34.7274 61.6834V68.3213H37.1019C37.4797 68.3213 37.7765 68.2673 38.0464 68.1324C38.3162 67.9975 38.4511 67.8356 38.5051 67.6197C38.5051 67.6197 38.5051 67.6197 38.5051 67.5927C38.5051 67.5927 38.5051 67.5927 38.5321 67.5927C38.559 67.5927 38.586 67.5927 38.586 67.6467L38.4241 68.5641L38.3971 68.5101Z" fill="#8EFFEC"/>
<path d="M47.5445 68.5098H46.1413C46.1144 68.5098 46.0874 68.5098 46.0874 68.4558C46.0874 68.4288 46.0874 68.4018 46.1413 68.4018C46.2223 68.4018 46.3032 68.3749 46.3572 68.2939C46.4112 68.213 46.4382 68.078 46.4382 67.9161L46.0064 61.4671L43.3081 68.5098H43.0922L40.4209 61.4671L39.9622 67.9161C39.9622 68.0511 39.9622 68.159 40.0431 68.2669C40.1241 68.3749 40.1511 68.4018 40.205 68.4018H40.259C40.286 68.4018 40.313 68.4018 40.313 68.4558C40.313 68.4828 40.3129 68.5098 40.259 68.5098H39.3955C39.3955 68.5098 39.3685 68.5098 39.3416 68.5098C39.3416 68.5098 39.3416 68.5098 39.3416 68.4828C39.3416 68.4558 39.3416 68.4558 39.3416 68.4558C39.3416 68.4558 39.3685 68.4558 39.3955 68.4558C39.4765 68.4558 39.5574 68.4018 39.6384 68.3209C39.6923 68.213 39.7463 68.078 39.7733 67.8892L40.205 61.6021C40.205 61.4671 40.205 61.3592 40.1511 61.2513C40.0971 61.1433 40.0431 61.1164 39.9891 61.1164H39.9352C39.9082 61.1164 39.8812 61.1164 39.8812 61.0624C39.8812 61.0084 39.8812 61.0084 39.9352 60.9814H41.0145L43.497 67.5654L46.0064 60.9814H47.0858C47.0858 60.9814 47.1127 60.9814 47.1397 60.9814C47.1397 60.9814 47.1397 61.0084 47.1397 61.0354C47.1397 61.0624 47.1397 61.0354 47.1397 61.0624C47.1397 61.0624 47.1397 61.0624 47.0858 61.0624C47.0048 61.0624 46.9239 61.0894 46.8699 61.1703C46.8159 61.2513 46.7889 61.3592 46.7889 61.5211L47.2207 67.8352C47.2207 67.9971 47.2746 68.132 47.3286 68.2399C47.3826 68.3479 47.4635 68.4018 47.5445 68.4018H47.5715C47.5715 68.4018 47.5984 68.4018 47.6254 68.4018C47.6254 68.4018 47.6254 68.4018 47.6254 68.4288C47.6254 68.4558 47.6254 68.4288 47.6254 68.4558C47.6254 68.4558 47.5984 68.4558 47.5715 68.4558L47.5445 68.5098Z" fill="#8EFFEC"/>
<path d="M58.2299 68.51H56.8268H56.7998C56.7998 68.51 56.7998 68.51 56.7998 68.4831C56.7998 68.4561 56.7998 68.4291 56.8268 68.4291H56.8808C56.9617 68.4291 57.0427 68.3751 57.0966 68.2672C57.1506 68.1593 57.1776 68.0244 57.1776 67.8625V64.8673H52.6444V67.8625C52.6444 68.0513 52.6714 68.2132 52.7523 68.2942C52.8063 68.3751 52.8872 68.4291 52.9682 68.4291C53.0491 68.4291 52.9952 68.4291 53.0222 68.4291C53.0222 68.4291 53.0222 68.4291 53.0222 68.4561C53.0222 68.4831 53.0222 68.4831 53.0222 68.4831C53.0222 68.4831 53.0222 68.4831 52.9682 68.4831H51.5651H51.5381C51.5381 68.4831 51.5381 68.4831 51.5381 68.4561C51.5381 68.4291 51.5381 68.4021 51.5651 68.4021H51.619C51.7 68.4021 51.754 68.3482 51.8079 68.2402C51.8619 68.1323 51.8889 67.9974 51.8889 67.8355V61.6293C51.8889 61.4404 51.8619 61.3055 51.8079 61.1976C51.754 61.1166 51.673 61.0627 51.592 61.0627C51.5111 61.0627 51.5651 61.0627 51.5651 61.0627C51.5651 61.0627 51.5651 61.0627 51.5651 61.0357C51.5651 61.0087 51.5651 61.0087 51.5651 60.9817C51.5651 60.9817 51.5651 60.9817 51.592 60.9817H52.9952C52.9952 60.9817 53.0222 60.9817 53.0492 60.9817C53.0761 60.9817 53.0492 60.9817 53.0492 61.0357C53.0492 61.0897 53.0492 61.0627 53.0492 61.0627C53.0492 61.0627 53.0491 61.0627 52.9952 61.0627C52.9142 61.0627 52.8333 61.1166 52.7793 61.1976C52.7254 61.2785 52.6714 61.4404 52.6714 61.6293V64.6245H57.2046V61.6293C57.2046 61.4404 57.1776 61.3055 57.1236 61.1976C57.0697 61.0896 56.9887 61.0627 56.8808 61.0627C56.7728 61.0627 56.8538 61.0627 56.8538 61.0627C56.8538 61.0627 56.8538 61.0627 56.8538 61.0357C56.8538 61.0087 56.8538 61.0087 56.8538 60.9817C56.8538 60.9547 56.8538 60.9817 56.8808 60.9817H58.2839C58.2839 60.9817 58.3109 60.9817 58.3379 60.9817C58.3379 60.9817 58.3379 60.9817 58.3379 61.0357C58.3379 61.0897 58.3379 61.0897 58.3379 61.0897C58.3379 61.0897 58.2839 61.0897 58.2569 61.0897C58.176 61.0897 58.122 61.1436 58.068 61.2516C58.0141 61.3595 57.9871 61.4944 57.9871 61.6563V67.8625C57.9871 68.0244 58.0141 68.1593 58.068 68.2672C58.122 68.3751 58.176 68.4291 58.2569 68.4291C58.3379 68.4291 58.3109 68.4291 58.3379 68.4291C58.3379 68.4291 58.3379 68.4291 58.3379 68.4831C58.3379 68.537 58.3379 68.51 58.3379 68.51C58.3379 68.51 58.3379 68.51 58.2839 68.51H58.2299Z" fill="#8EFFEC"/>
<path d="M60.4694 68.5101H59.0663H59.0393C59.0393 68.5101 59.0393 68.5101 59.0393 68.4832C59.0393 68.4562 59.0393 68.4292 59.0663 68.4292H59.1203C59.2012 68.4292 59.2552 68.3752 59.3091 68.2673C59.3631 68.1594 59.3901 68.0244 59.3901 67.8625V61.6564C59.3901 61.4675 59.3631 61.3326 59.3091 61.2247C59.2552 61.1437 59.1742 61.0897 59.0933 61.0897C59.0123 61.0897 59.0663 61.0897 59.0663 61.0897C59.0663 61.0897 59.0663 61.0897 59.0663 61.0628C59.0663 61.0358 59.0663 61.0358 59.0663 61.0088C59.0663 61.0088 59.0663 61.0088 59.0933 61.0088H60.4964C60.4964 61.0088 60.5234 61.0088 60.5504 61.0088C60.5774 61.0088 60.5504 61.0088 60.5504 61.0628C60.5504 61.1167 60.5504 61.1167 60.5504 61.1167C60.5504 61.1167 60.4964 61.1167 60.4694 61.1167C60.3885 61.1167 60.3345 61.1707 60.2805 61.2786C60.2266 61.3866 60.1996 61.5215 60.1996 61.6834V67.8895C60.1996 68.0784 60.2266 68.2403 60.3075 68.3213C60.3615 68.4022 60.4424 68.4562 60.5234 68.4562C60.6043 68.4562 60.5504 68.4562 60.5774 68.4562C60.5774 68.4562 60.5774 68.4562 60.5774 68.4832C60.5774 68.5101 60.5774 68.5101 60.5774 68.5101C60.5774 68.5101 60.5774 68.5101 60.5234 68.5101H60.4694Z" fill="#8EFFEC"/>
<path d="M64.2742 68.5099H61.306H61.2791C61.2791 68.5099 61.2791 68.5099 61.2791 68.4829C61.2791 68.456 61.279 68.429 61.306 68.429H61.36C61.4409 68.429 61.4949 68.375 61.5489 68.2671C61.6029 68.1591 61.6298 68.0242 61.6298 67.8623V61.6562C61.6298 61.4673 61.6029 61.3324 61.5489 61.2244C61.4949 61.1435 61.414 61.0895 61.333 61.0895C61.2521 61.0895 61.306 61.0895 61.306 61.0895C61.306 61.0895 61.306 61.0895 61.306 61.0625C61.306 61.0356 61.306 61.0356 61.306 61.0086C61.306 60.9816 61.306 61.0086 61.333 61.0086H64.3012C65.0027 61.0086 65.6234 61.1705 66.19 61.5213C66.7567 61.872 67.2154 62.3308 67.5662 62.8974C67.9169 63.4641 68.0788 64.1117 68.0788 64.8132C68.0788 65.5148 67.9169 66.1354 67.5662 66.702C67.2154 67.2687 66.7567 67.7274 66.19 68.0782C65.6234 68.429 64.9758 68.5909 64.3012 68.5909L64.2742 68.5099ZM64.2742 68.2941C64.8139 68.2941 65.2996 68.1322 65.7583 67.8084C66.217 67.4846 66.5678 67.0528 66.8376 66.5132C67.1074 65.9735 67.2423 65.3799 67.2423 64.7323C67.2423 64.0847 67.1074 63.491 66.8376 62.9514C66.5678 62.4117 66.217 61.98 65.7583 61.6562C65.2996 61.3324 64.8139 61.1705 64.2742 61.1705H62.3854V68.2671H64.2742V68.2941Z" fill="#8EFFEC"/>
<path d="M73.6373 68.5102H68.8073C68.8073 68.5102 68.8073 68.5102 68.7803 68.5102C68.7803 68.5102 68.7803 68.4832 68.7803 68.4562C68.7803 68.4562 68.7803 68.4292 68.7803 68.4022C68.7803 68.3753 68.7803 68.4022 68.8073 68.4022C68.8882 68.4022 68.9692 68.3483 69.0501 68.2673C69.1041 68.1864 69.158 68.0245 69.158 67.8356V61.6294C69.158 61.4675 69.1311 61.3326 69.0771 61.2247C69.0231 61.1168 68.9422 61.0628 68.8882 61.0628C68.8342 61.0628 68.8342 61.0628 68.8073 61.0628C68.7803 61.0628 68.8073 61.0628 68.8073 61.0088C68.8073 61.0088 68.8073 60.9818 68.8073 60.9549C68.8073 60.9279 68.8073 60.9549 68.8342 60.9549H73.6642L73.8261 61.8723V61.8993C73.8261 61.8993 73.8261 61.8993 73.7722 61.8993C73.7722 61.8993 73.7722 61.8993 73.7452 61.8993C73.7452 61.7644 73.6642 61.6564 73.5293 61.5485C73.3944 61.4406 73.2055 61.3596 72.9897 61.3057C72.7738 61.2517 72.5579 61.2247 72.3151 61.2247H69.9406V64.6786H72.2881C72.45 64.6786 72.5849 64.6516 72.6928 64.5976C72.8008 64.5436 72.8547 64.4627 72.8547 64.3817C72.8547 64.3008 72.8547 64.3278 72.8547 64.3278C72.8547 64.3278 72.8547 64.3278 72.9087 64.3278H72.9357C72.9357 64.3278 72.9357 64.3278 72.9357 64.3548V65.2182V65.2452C72.9357 65.2452 72.9357 65.2452 72.9087 65.2452C72.9087 65.2452 72.8817 65.2452 72.8547 65.2452C72.8278 65.2452 72.8547 65.2452 72.8547 65.1912C72.8547 65.1103 72.8008 65.0293 72.7198 64.9754C72.6389 64.9214 72.477 64.8944 72.2881 64.8944H69.9406V68.3213H72.3151C72.6659 68.3213 72.9897 68.2673 73.2595 68.1324C73.5293 67.9975 73.6912 67.8356 73.7452 67.6467C73.7452 67.5928 73.7452 67.5658 73.8261 67.5658C73.8531 67.5658 73.8801 67.5928 73.8801 67.6197L73.7182 68.5372L73.6373 68.5102Z" fill="#8EFFEC"/>
<path d="M80.518 68.51H79.2228C79.1958 68.51 79.1688 68.51 79.1688 68.4561C79.1688 68.4291 79.1688 68.4021 79.1958 68.4021H79.2498C79.3307 68.4021 79.3847 68.3212 79.3847 68.1593C79.3847 68.0783 79.1418 67.2958 78.6292 65.8117H75.9578L75.3372 67.6196C75.3372 67.6736 75.3102 67.7005 75.2832 67.7545C75.2563 67.8355 75.2293 67.8894 75.2293 67.9434C75.2293 67.9974 75.2293 68.0513 75.2293 68.1323V68.2672C75.2293 68.3481 75.2832 68.3751 75.3912 68.3751C75.4991 68.3751 75.4451 68.3751 75.4721 68.4291C75.4721 68.4561 75.4721 68.483 75.4182 68.483H74.6087C74.5817 68.483 74.5547 68.4831 74.5547 68.4291C74.5547 68.3751 74.5547 68.3751 74.6356 68.3751C74.7166 68.3751 74.8245 68.3212 74.9055 68.2132C74.9864 68.1053 75.0674 67.9704 75.1213 67.8085L77.4959 60.9277H77.7117L80.0863 67.8085C80.1402 67.9704 80.2212 68.1053 80.3021 68.2132C80.3831 68.3212 80.491 68.3751 80.572 68.3751C80.6529 68.3751 80.6259 68.3751 80.6529 68.4291C80.6529 68.4561 80.6529 68.483 80.5989 68.483L80.518 68.51ZM78.5482 65.5958L77.28 61.9801L76.0388 65.5958H78.5482Z" fill="#8EFFEC"/>
<path d="M87.3447 68.5099H87.1289L84.8623 61.98L82.5957 68.5099H82.3798L80.0053 61.6292C79.9513 61.4673 79.8704 61.3324 79.7894 61.2244C79.7085 61.1165 79.6275 61.0625 79.5466 61.0625C79.4656 61.0625 79.4926 61.0625 79.4926 61.0625C79.4926 61.0625 79.4926 61.0625 79.4926 61.0086C79.4926 60.9546 79.4926 60.9816 79.4926 60.9546C79.4926 60.9546 79.4926 60.9546 79.5196 60.9546H80.8148C80.8418 60.9546 80.8687 60.9546 80.8687 61.0355C80.8687 61.0625 80.8687 61.0895 80.8148 61.0895C80.7608 61.0895 80.7338 61.0895 80.6799 61.1435C80.6529 61.1705 80.6259 61.2244 80.6259 61.3324C80.6259 61.4403 80.6259 61.5482 80.7068 61.6831L82.7306 67.5385L84.9972 60.9816H85.1861L87.4527 67.5385L89.4764 61.6831C89.5304 61.5482 89.5574 61.4403 89.5574 61.3324C89.5574 61.1974 89.5034 61.1165 89.4224 61.1165H89.3685C89.3685 61.1165 89.3685 61.1165 89.3415 61.1165C89.3415 61.1165 89.3415 61.1165 89.3415 61.0895C89.3415 61.0895 89.3415 61.0625 89.3415 61.0355C89.3415 61.0355 89.3415 61.0355 89.3685 61.0355H90.178H90.205C90.205 61.0355 90.205 61.0625 90.205 61.0895C90.205 61.1165 90.205 61.1435 90.151 61.1435C90.07 61.1435 89.9891 61.1974 89.8812 61.2784C89.7732 61.3593 89.7193 61.5212 89.6383 61.7101L87.2638 68.5909L87.3447 68.5099Z" fill="#8EFFEC"/>
<path d="M95.143 68.51H93.8478C93.8208 68.51 93.7938 68.51 93.7938 68.4561C93.7938 68.4291 93.7938 68.4021 93.8208 68.4021H93.8748C93.9557 68.4021 94.0097 68.3212 94.0097 68.1593C94.0097 68.0783 93.7668 67.2958 93.2542 65.8117H90.5828L89.9622 67.6196C89.9622 67.6736 89.9352 67.7005 89.9082 67.7545C89.8812 67.8355 89.8543 67.8894 89.8543 67.9434C89.8543 67.9974 89.8543 68.0513 89.8543 68.1323V68.2672C89.8543 68.3481 89.9082 68.3751 90.0162 68.3751C90.1241 68.3751 90.0701 68.3751 90.0971 68.4291C90.0971 68.4561 90.0971 68.483 90.0431 68.483H89.2336C89.2067 68.483 89.1797 68.4831 89.1797 68.4291C89.1797 68.3751 89.1797 68.3751 89.2606 68.3751C89.3416 68.3751 89.4495 68.3212 89.5305 68.2132C89.6114 68.1053 89.6924 67.9704 89.7463 67.8085L92.1209 60.9277H92.3367L94.7112 67.8085C94.7652 67.9704 94.8462 68.1053 94.9271 68.2132C95.0081 68.3212 95.116 68.3751 95.197 68.3751C95.2779 68.3751 95.2509 68.3751 95.2779 68.4291C95.2779 68.4561 95.2779 68.483 95.2239 68.483L95.143 68.51ZM93.1732 65.5958L91.905 61.9801L90.6638 65.5958H93.1732Z" fill="#8EFFEC"/>
<path d="M97.8413 68.5101H96.4381C96.4381 68.5101 96.4112 68.5101 96.3842 68.5101C96.3842 68.5101 96.3842 68.5101 96.3842 68.4832C96.3842 68.4562 96.3842 68.4562 96.3842 68.4562C96.3842 68.4562 96.4112 68.4562 96.4381 68.4562C96.5191 68.4562 96.6 68.4022 96.654 68.3213C96.708 68.2133 96.7349 68.0784 96.7349 67.8895V64.8134L94.7652 61.6834C94.6572 61.5215 94.5493 61.3866 94.4144 61.2786C94.2795 61.1707 94.1985 61.1167 94.1176 61.1167C94.0366 61.1167 94.0636 61.1167 94.0636 61.1167C94.0636 61.1167 94.0366 61.1167 94.0366 61.0628C94.0366 61.0088 94.0366 61.0358 94.0366 61.0088C94.0366 61.0088 94.0636 61.0088 94.0906 61.0088H95.6017C95.6286 61.0088 95.6556 61.0088 95.6556 61.0897C95.6556 61.0897 95.6556 61.0897 95.6556 61.1167C95.6556 61.1167 95.6556 61.1167 95.6286 61.1167C95.5747 61.1167 95.5477 61.1167 95.5207 61.1167C95.4937 61.1167 95.4937 61.1707 95.4937 61.2247C95.4937 61.3326 95.5477 61.4675 95.6556 61.6564L97.3556 64.3277L99.0555 61.6564C99.1635 61.4675 99.2174 61.3056 99.2174 61.2247C99.2174 61.1437 99.2174 61.1167 99.1904 61.1167C99.1635 61.1167 99.1365 61.1167 99.0825 61.1167C99.0285 61.1167 99.0285 61.1167 99.0285 61.0628C99.0285 61.0628 99.0285 61.0358 99.0285 61.0088C99.0285 61.0088 99.0285 61.0088 99.0555 61.0088H99.946C99.946 61.0088 99.973 61.0088 99.9999 61.0088C99.9999 61.0088 99.9999 61.0358 99.9999 61.0628C99.9999 61.0897 99.9999 61.0628 99.9999 61.0897C99.9999 61.0897 99.9729 61.0897 99.946 61.0897C99.865 61.0897 99.7571 61.1437 99.6222 61.2247C99.5142 61.3056 99.3793 61.4675 99.2444 61.6564L97.4905 64.4626V67.8625C97.4905 68.0514 97.5175 68.2133 97.5984 68.2943C97.6524 68.3752 97.7333 68.4292 97.8413 68.4292C97.9492 68.4292 97.8413 68.4292 97.8682 68.4292C97.8682 68.4292 97.8682 68.4292 97.8682 68.4562C97.8682 68.4832 97.8682 68.4562 97.8682 68.4832C97.8682 68.4832 97.8683 68.4832 97.8413 68.4832V68.5101Z" fill="#8EFFEC"/>
<path d="M36.7243 79.9044L35.7529 78.7171C35.6449 78.7171 35.537 78.7171 35.4021 78.7171H34.2688V79.8774H33.8101V76.1807H35.4021C36.4814 76.1807 37.129 76.6664 37.129 77.4489C37.129 78.2314 36.7782 78.4473 36.1576 78.6092L37.183 79.8774H36.6973L36.7243 79.9044ZM36.6973 77.4759C36.6973 76.8822 36.2386 76.5584 35.4021 76.5584H34.2688V78.4203H35.4021C36.2655 78.4203 36.6973 78.0695 36.6973 77.5028V77.4759Z" fill="#8EFFEC"/>
<path d="M42.7954 79.5535V79.9042H39.8003V76.2075H42.7145V76.5583H40.259V77.8805H42.4447V78.2043H40.259V79.5804H42.8224L42.7954 79.5535Z" fill="#8EFFEC"/>
<path d="M45.035 79.4455L45.2239 79.1487C45.5207 79.4185 46.0604 79.6074 46.6271 79.6074C47.4096 79.6074 47.7604 79.3106 47.7604 78.9598C47.7604 77.9345 45.143 78.5551 45.143 77.2059C45.143 75.8567 45.6287 76.1805 46.708 76.1805C47.7873 76.1805 47.6794 76.3155 48.0302 76.5043L47.8683 76.8281C47.4905 76.6123 47.0858 76.5313 46.708 76.5313C45.9255 76.5313 45.5747 76.8281 45.5747 77.2059C45.5747 78.2313 48.1921 77.6107 48.1921 78.9598C48.1921 80.309 47.7064 79.9582 46.6001 79.9582C45.4938 79.9582 45.3319 79.7693 45.0081 79.4725L45.035 79.4455Z" fill="#8EFFEC"/>
<path d="M50.3777 78.0421C50.3777 76.9628 51.3221 76.1533 52.6173 76.1533C53.9125 76.1533 54.8569 76.9628 54.8569 78.0421C54.8569 79.1215 53.9125 79.931 52.6173 79.931C51.3221 79.931 50.3777 79.1215 50.3777 78.0421ZM54.3982 78.0421C54.3982 77.1517 53.6427 76.5041 52.6173 76.5041C51.5919 76.5041 50.8364 77.1517 50.8364 78.0421C50.8364 78.9326 51.5919 79.5802 52.6173 79.5802C53.6427 79.5802 54.3982 78.9326 54.3982 78.0421Z" fill="#8EFFEC"/>
<path d="M60.3615 79.9044L59.3901 78.7171C59.2821 78.7171 59.1742 78.7171 59.0393 78.7171H57.906V79.8774H57.4473V76.1807H59.0393C60.1186 76.1807 60.7662 76.6664 60.7662 77.4489C60.7662 78.2314 60.4154 78.4473 59.7948 78.6092L60.8202 79.8774H60.3345L60.3615 79.9044ZM60.3345 77.4759C60.3345 76.8822 59.8758 76.5584 59.0393 76.5584H57.906V78.4203H59.0393C59.9027 78.4203 60.3345 78.0695 60.3345 77.5028V77.4759Z" fill="#8EFFEC"/>
<path d="M64.2473 76.5314H62.7632V76.1807H66.1901V76.5314H64.706V79.9044H64.2473V76.5314Z" fill="#8EFFEC"/>
</svg>
