<svg width="62" height="62" viewBox="0 0 62 62" fill="none" xmlns="http://www.w3.org/2000/svg">
<g clip-path="url(#clip0_45_121)">
<path d="M34.9565 16.153C35.4352 16.2836 35.952 16.0059 36.0825 15.5104C36.2098 15.0271 35.9199 14.5311 35.4372 14.4011L35.4346 14.4004C34.9502 14.2684 34.4511 14.5538 34.3192 15.0377C34.1872 15.5217 34.4726 16.021 34.9565 16.153ZM46.4953 36.0708C46.9666 36.195 47.474 35.9125 47.6045 35.4255L47.6053 35.4229C47.7373 34.9388 47.4519 34.4394 46.9678 34.3076C46.4839 34.1757 45.9845 34.461 45.8525 34.9449L45.8461 34.9691C45.7216 35.4529 46.012 35.9434 46.4953 36.0708ZM30.986 15.6377H30.9981C31.4997 15.6377 31.9064 15.231 31.9064 14.7293C31.9064 14.2277 31.4997 13.821 30.9981 13.821H30.986C30.4843 13.821 30.0776 14.2277 30.0776 14.7293C30.0776 15.231 30.4843 15.6377 30.986 15.6377ZM17.3728 22.0818C16.9397 21.8291 16.3834 21.9753 16.1306 22.4086L16.1221 22.4234C15.8716 22.8581 16.0228 23.4103 16.4574 23.6607C16.8857 23.9074 17.4446 23.7615 17.6998 23.324C17.9525 22.8908 17.8062 22.3346 17.3728 22.0818ZM15.516 25.9123C15.0331 25.785 14.5367 26.075 14.4067 26.5576L14.406 26.5604C14.274 27.0444 14.5593 27.5437 15.0433 27.6757C15.526 27.8074 16.0366 27.513 16.1651 27.0142C16.2897 26.5303 15.9993 26.0397 15.516 25.9123ZM44.6427 39.9031C45.069 40.1518 45.6297 40.0142 45.885 39.5761L45.8934 39.5615C46.1439 39.1268 45.9928 38.5746 45.5581 38.3242C45.1234 38.0736 44.5663 38.2261 44.3157 38.6609C44.0629 39.0942 44.2092 39.6503 44.6427 39.9031ZM26.5383 14.4095C26.0542 14.5415 25.7686 15.041 25.9005 15.5249C26.0107 15.929 26.3766 16.1946 26.7761 16.1946C27.3621 16.1946 27.8152 15.6252 27.6687 15.0562C27.5417 14.5632 27.0297 14.2754 26.5383 14.4095ZM18.8612 18.8581L18.8526 18.8667C18.4978 19.2214 18.4978 19.7966 18.8526 20.1512C19.2073 20.5058 19.7824 20.506 20.1371 20.1512L20.1457 20.1426C20.5004 19.7879 20.5004 19.2127 20.1457 18.8581C19.7911 18.5033 19.2159 18.5033 18.8612 18.8581ZM22.4076 16.1298L22.405 16.1313C21.9703 16.3818 21.8209 16.9372 22.0715 17.3719C22.3307 17.8217 22.8974 17.9516 23.3324 17.6935C23.7625 17.4384 23.903 16.885 23.6499 16.4539C23.3967 16.0227 22.8399 15.8786 22.4076 16.1298ZM35.1755 27.4586L33.8028 28.2512L33.0721 26.9855L34.6312 26.0854C35.0657 25.8346 35.2145 25.279 34.9637 24.8446C34.7127 24.4102 34.1573 24.2613 33.7229 24.5121L31.3772 25.8664C30.9427 26.1173 30.7939 26.6728 31.0447 27.1072L34.3861 32.8948C34.6393 33.3338 35.1988 33.4743 35.6269 33.2272C36.0613 32.9764 36.2102 32.4208 35.9594 31.9864L34.7112 29.8245L36.0839 29.032C36.5183 28.7812 36.6671 28.2256 36.4163 27.7912C36.1654 27.3566 35.6098 27.2078 35.1755 27.4586ZM42.086 27.3932L40.4384 28.3444L39.679 27.0292L41.1471 26.1817C41.5816 25.9309 41.7304 25.3753 41.4796 24.9409C41.2288 24.5063 40.6731 24.3576 40.2388 24.6084L38.7708 25.456L38.0114 24.1408L39.659 23.1896C40.0934 22.9388 40.2423 22.3832 39.9915 21.9488C39.7406 21.5142 39.1851 21.3654 38.7507 21.6163L36.3164 23.0217C35.8873 23.2664 35.7352 23.8361 35.9839 24.2625L39.3193 30.0395C39.5632 30.4667 40.133 30.6213 40.5601 30.372L42.9944 28.9666C43.4288 28.7157 43.5776 28.1602 43.3268 27.7258C43.076 27.2913 42.5206 27.1424 42.086 27.3932ZM47.091 24.5035L45.4435 25.4548L44.6841 24.1396L46.1521 23.292C46.5866 23.0412 46.7354 22.4857 46.4846 22.0512C46.2338 21.6168 45.678 21.4681 45.2438 21.7188L43.7758 22.5663L43.0164 21.2512L44.6639 20.2999C45.0983 20.0491 45.2472 19.4936 44.9964 19.0591C44.7455 18.6246 44.1899 18.4757 43.7556 18.7267L41.3214 20.1321C40.8923 20.3767 40.7402 20.9464 40.989 21.3729C41.6363 22.4826 43.634 25.9532 44.3243 27.1499C44.5775 27.5889 45.1373 27.73 45.5651 27.4823L47.9992 26.0769C48.4337 25.8261 48.5825 25.2706 48.3317 24.8361C48.081 24.4016 47.5253 24.2527 47.091 24.5035ZM26.7411 29.9601C25.6384 29.6648 24.4864 29.8162 23.4975 30.3871C22.5087 30.9579 21.8014 31.8797 21.5059 32.9826C21.2104 34.0854 21.362 35.2373 21.933 36.2261C22.5039 37.2149 23.4256 37.9222 24.5284 38.2177C25.6248 38.5115 26.7799 38.3634 27.772 37.7907C28.7607 37.2198 29.468 36.298 29.7636 35.1952C30.0591 34.0923 29.9074 32.9404 29.3365 31.9517C28.7656 30.9629 27.8439 30.2556 26.7411 29.9601ZM28.0089 34.7249C27.8389 35.3591 27.4322 35.8891 26.8637 36.2173C26.2952 36.5455 25.633 36.6327 24.9988 36.4628C24.3647 36.2928 23.8347 35.8861 23.5065 35.3176C22.8288 34.1441 23.2324 32.638 24.4061 31.9604C24.7922 31.7375 25.2141 31.6316 25.6308 31.6316C26.4809 31.6316 27.3087 32.0724 27.7634 32.86C28.0915 33.4285 28.1788 34.0909 28.0089 34.7249ZM61.6591 18.9419L56.8029 10.5555C56.086 9.3175 54.4932 8.89154 53.2521 9.60587L51.3908 10.6772C51.1897 9.74915 50.8918 8.80119 50.1519 8.17952C49.2489 7.42086 47.9773 7.39676 46.8556 7.37545C46.0732 7.36055 45.264 7.34517 44.8104 7.08259C44.3657 6.82474 43.9534 6.13633 43.5549 5.47057C42.9746 4.50142 42.3168 3.40293 41.197 2.99453C40.0978 2.59256 38.8995 3.00374 37.8423 3.36659C37.0967 3.62263 36.3258 3.88702 35.7994 3.79473C35.3043 3.70753 34.6868 3.20696 34.0899 2.723C33.2079 2.00806 32.2084 1.19769 31.0033 1.19769C29.7982 1.19769 28.7987 2.00806 27.9167 2.723C27.3196 3.20709 26.7023 3.70753 26.2073 3.79473C25.6806 3.88774 24.9097 3.6225 24.1642 3.36647C23.1074 3.00337 21.9098 2.59183 20.8098 2.99332C19.6895 3.4028 19.0323 4.50118 18.4525 5.47045C18.0542 6.13646 17.6423 6.82499 17.1982 7.08235C16.7435 7.34541 15.9341 7.36067 15.1514 7.37557C14.0294 7.39676 12.7577 7.42098 11.8545 8.17976C10.9493 8.94072 10.706 10.191 10.4914 11.2941C10.3422 12.0611 10.1879 12.8543 9.85179 13.2539C9.51849 13.6507 8.76589 13.9383 8.03812 14.2165C6.98625 14.6185 5.79413 15.0743 5.1991 16.1006C4.6094 17.1178 4.80584 18.3722 4.97928 19.4789C5.10075 20.2546 5.22647 21.0569 5.04444 21.5544C4.87015 22.0323 4.26677 22.5559 3.68336 23.0621C2.82794 23.8042 1.85843 24.6455 1.65072 25.8267C1.45003 26.9715 2.03453 28.027 2.59988 29.0477C2.98393 29.7413 3.38119 30.4585 3.38119 31.0001C3.38119 31.5417 2.98406 32.2589 2.59988 32.9524C2.03465 33.9732 1.45003 35.0287 1.65084 36.1737C1.81471 37.1064 2.45394 37.8265 3.13678 38.4538L1.29997 39.5111C0.0612262 40.2136 -0.370543 41.8294 0.347659 43.0582L5.20394 51.4446C5.68513 52.2757 6.5609 52.7408 7.46016 52.7408C7.90053 52.7408 8.34671 52.6291 8.75475 52.3943L10.616 51.3229C10.8171 52.251 11.1149 53.1989 11.8549 53.8206C12.7579 54.5793 14.0295 54.6034 15.1512 54.6247C15.9336 54.6396 16.7428 54.655 17.1963 54.9175C17.6411 55.1754 18.0533 55.8638 18.4519 56.5296C19.0322 57.4987 19.69 58.5972 20.8098 59.0056C21.9089 59.4076 23.1072 58.9964 24.1645 58.6335C24.9101 58.3775 25.6812 58.1131 26.2074 58.2054C26.7025 58.2926 27.32 58.7932 27.9169 59.2771C28.7989 59.9921 29.7984 60.8024 31.0035 60.8024C32.2086 60.8024 33.2081 59.9921 34.0901 59.2771C34.6872 58.793 35.3045 58.2926 35.7995 58.2054C36.3265 58.1126 37.0971 58.3776 37.8426 58.6337C38.8993 58.9968 40.0967 59.4081 41.197 59.0068C42.3173 58.5973 42.9745 57.499 43.5543 56.5297C43.9526 55.8637 44.3645 55.1752 44.8086 54.9178C45.2633 54.6547 46.0727 54.6395 46.8554 54.6246C47.9774 54.6034 49.2491 54.5792 50.1523 53.8204C51.0575 53.0594 51.3008 51.8092 51.5154 50.7061C51.6646 49.9391 51.8189 49.1459 52.155 48.7462C52.4883 48.3494 53.2409 48.0618 53.9687 47.7836C55.0205 47.3816 56.2127 46.9259 56.8077 45.8996C57.3974 44.8823 57.201 43.628 57.0275 42.5212C56.906 41.7455 56.7803 40.9432 56.9624 40.4457C57.1366 39.9678 57.74 39.4442 58.3234 38.9381C59.1789 38.1959 60.1484 37.3546 60.3561 36.1734C60.5568 35.0287 59.9723 33.9732 59.4069 32.9524C59.0229 32.2588 58.6256 31.5417 58.6256 31.0001C58.6256 30.4585 59.0227 29.7412 59.4069 29.0477C59.9721 28.027 60.5568 26.9715 60.356 25.8265C60.1921 24.8938 59.5529 24.1736 58.87 23.5464L60.7068 22.4891C61.9292 21.7929 62.37 20.1555 61.6591 18.9419ZM3.43993 26.1408C3.53585 25.5951 4.21602 25.005 4.87379 24.4343C5.63184 23.7765 6.41568 23.0965 6.7508 22.1777C7.09392 21.2397 6.93138 20.2017 6.77406 19.1978C6.6412 18.3495 6.50373 17.4723 6.77079 17.0117C7.04329 16.5415 7.87885 16.2223 8.6868 15.9135C9.63064 15.5527 10.6067 15.1796 11.2427 14.4228C11.8813 13.6632 12.0812 12.6353 12.2748 11.6412C12.4396 10.7941 12.61 9.9181 13.0235 9.57051C13.4346 9.22509 14.3249 9.20825 15.1859 9.1919C16.1992 9.17265 17.2471 9.15278 18.1086 8.6544C18.96 8.16087 19.4946 7.26717 20.0116 6.40303C20.4572 5.65818 20.918 4.88802 21.4329 4.69981C21.9281 4.51935 22.7649 4.80663 23.5741 5.08459C24.5374 5.41547 25.5337 5.75773 26.5222 5.58394C27.4808 5.41523 28.284 4.764 29.0609 4.13421C29.7399 3.58375 30.4422 3.01439 31.0034 3.01439C31.5646 3.01439 32.2669 3.58375 32.9459 4.13421C33.7228 4.764 34.526 5.41523 35.4847 5.58394C36.4726 5.75773 37.4689 5.41559 38.4323 5.08495C39.2418 4.80711 40.0788 4.51983 40.5738 4.70102C41.0891 4.88899 41.5502 5.65915 41.9963 6.40399C42.5135 7.2679 43.0484 8.16123 43.8999 8.65477C44.7603 9.15291 45.8079 9.17277 46.8212 9.19203C47.682 9.20838 48.5722 9.22521 48.9834 9.57063C49.396 9.91737 49.5666 10.7883 49.7304 11.6332L44.1265 14.859C41.0335 12.3375 37.3282 10.7718 33.3689 10.3218C32.8698 10.2648 32.4203 10.6233 32.3637 11.1217C32.3071 11.6202 32.6652 12.0702 33.1637 12.1268C36.5439 12.511 39.7208 13.7883 42.4283 15.8365L12.1436 33.2691C12.0538 32.518 12.008 31.7588 12.008 31.0001C12.008 26.2636 13.7687 21.7234 16.9659 18.2159C20.1421 14.7315 24.4576 12.5586 29.1175 12.0974C29.6168 12.048 29.9814 11.6033 29.932 11.104C29.8826 10.6048 29.438 10.2395 28.9387 10.2896C23.8313 10.795 19.1024 13.1753 15.6233 16.9921C12.1205 20.8349 10.1914 25.8096 10.1914 31.0001C10.1914 32.0882 10.2779 33.1771 10.4462 34.2463L4.79664 37.4984C4.16394 36.9489 3.53234 36.3838 3.44017 35.8597C3.3503 35.3473 3.77674 34.5773 4.18926 33.8325C4.68521 32.937 5.19801 32.0111 5.19801 31.0001C5.19801 29.989 4.68521 29.063 4.18926 28.1676C3.77662 27.4229 3.35018 26.6528 3.43993 26.1408ZM58.5667 35.8593C58.4708 36.4049 57.7907 36.9951 57.1329 37.5657C56.3748 38.2235 55.591 38.9036 55.2559 39.8223C54.9128 40.7604 55.0753 41.7983 55.2326 42.8022C55.3655 43.6505 55.5029 44.5277 55.2359 44.9883C54.9634 45.4585 54.1278 45.7777 53.3199 46.0866C52.376 46.4474 51.4 46.8204 50.764 47.5772C50.1254 48.3368 49.9254 49.3647 49.7319 50.3588C49.5671 51.2059 49.3967 52.0819 48.9832 52.4295C48.5721 52.7749 47.6818 52.7918 46.8208 52.8081C45.8075 52.8274 44.7596 52.8472 43.8981 53.3456C43.0467 53.8391 42.5121 54.7328 41.995 55.597C41.5495 56.3418 41.0886 57.112 40.5738 57.3002C40.0785 57.4807 39.2418 57.1934 38.4326 56.9154C37.4692 56.5845 36.4729 56.2423 35.4845 56.4161C34.5259 56.5848 33.7226 57.236 32.9458 57.8658C32.2667 58.4163 31.5645 58.9856 31.0033 58.9856C30.442 58.9856 29.7398 58.4163 29.0607 57.8658C28.2839 57.236 27.4807 56.5848 26.522 56.4161C25.5338 56.2423 24.5378 56.5844 23.5744 56.9151C22.765 57.1929 21.928 57.4802 21.4329 57.299C20.9176 57.111 20.4565 56.3409 20.0104 55.596C19.4931 54.7321 18.9583 53.8388 18.1068 53.3452C17.2464 52.8471 16.1987 52.8272 15.1855 52.808C14.3246 52.7916 13.4344 52.7748 13.0233 52.4294C12.6106 52.0826 12.4401 51.2117 12.2762 50.3668L17.8806 47.1407C21.5849 50.1571 26.2187 51.812 31.0033 51.812C42.4791 51.812 51.8154 42.4757 51.8154 30.9998C51.8154 29.9117 51.7289 28.8228 51.5606 27.7536L57.2102 24.5015C57.8429 25.051 58.4745 25.6161 58.5666 26.1402C58.6565 26.6526 58.2301 27.4226 57.8175 28.1673C57.3216 29.0629 56.8088 29.9888 56.8088 30.9998C56.8088 32.0109 57.3216 32.9369 57.8175 33.8323C58.2301 34.5772 58.6565 35.3472 58.5667 35.8593ZM59.8005 20.9145L25.1703 40.8486C24.7355 41.0989 24.586 41.6543 24.8363 42.0891C25.0865 42.5239 25.6421 42.6735 26.0767 42.4231L49.8632 28.7309C49.953 29.482 49.9988 30.2412 49.9988 30.9999C49.9988 41.4741 41.4775 49.9954 31.0034 49.9954C26.871 49.9954 22.8611 48.6431 19.5773 46.1643L22.3985 44.5403C22.8333 44.2901 22.9829 43.7347 22.7326 43.2999C22.4822 42.8651 21.9269 42.7154 21.4921 42.9658L7.84845 50.8197C7.47349 51.0357 6.9923 50.9076 6.77612 50.5342L1.91983 42.1478C1.70534 41.7815 1.83784 41.2954 2.20639 41.0855L54.1583 11.1803C54.5336 10.9644 55.0146 11.0925 55.2307 11.4658L60.087 19.8522C60.3002 20.2166 60.1685 20.7051 59.8005 20.9145ZM19.2685 33.8675C19.0135 33.4355 18.4567 33.292 18.0245 33.5471C17.5925 33.802 17.449 34.359 17.7041 34.791L19.6789 38.1364L14.8509 35.8468C14.4916 35.6764 14.0635 35.7595 13.7939 36.0516C13.5244 36.3438 13.4762 36.7773 13.675 37.1216L17.0348 42.9409C17.288 43.3799 17.8475 43.5204 18.2756 43.2733C18.71 43.0225 18.8589 42.467 18.608 42.0325L16.7052 38.7368L21.2974 40.9145C21.7171 41.1128 22.1805 41.0321 22.4785 40.709C22.7819 40.3796 22.8218 39.8963 22.5757 39.4699L19.2685 33.8675ZM42.5156 43.3958C42.748 43.3958 42.9805 43.3071 43.1579 43.1297L43.1665 43.1211C43.5212 42.7664 43.5212 42.1912 43.1665 41.8366C42.8117 41.4818 42.2365 41.4818 41.8819 41.8366L41.8733 41.8452C41.5186 42.1999 41.5186 42.7751 41.8733 43.1297C42.0506 43.307 42.2831 43.3958 42.5156 43.3958ZM35.4852 47.5861C35.9693 47.454 36.2546 46.9547 36.1226 46.4707C35.9907 45.9868 35.491 45.7014 35.0073 45.8334L34.9955 45.8366C34.5116 45.9686 34.2262 46.4679 34.3582 46.9519C34.494 47.4502 35.0074 47.7164 35.4852 47.5861ZM39.6141 45.8615L39.6167 45.86C40.0514 45.6095 40.2008 45.0541 39.9502 44.6194C39.6996 44.1847 39.1444 44.0354 38.7096 44.286C38.7063 44.2879 38.6925 44.2959 38.6893 44.2978C38.2592 44.5529 38.1187 45.1063 38.3718 45.5374C38.6277 45.9731 39.1882 46.1097 39.6141 45.8615ZM30.9913 48.1792H31.026C31.5321 48.1792 31.9465 47.7761 31.9465 47.2708C31.9465 46.7654 31.5313 46.3665 31.026 46.3625C31.0185 46.3625 31.011 46.3625 31.0034 46.3625H30.9913C30.4896 46.3625 30.0829 46.7692 30.0829 47.2708C30.0829 47.7725 30.4896 48.1792 30.9913 48.1792ZM26.5527 47.5945L26.5555 47.5953C27.0268 47.7246 27.5376 47.4465 27.6708 46.9578C27.8029 46.4739 27.5175 45.9745 27.0334 45.8425L27.0093 45.8361C26.5258 45.7116 26.0348 46.002 25.9074 46.4851C25.78 46.9683 26.0701 47.4645 26.5527 47.5945Z" fill="#121212"/>
</g>
<defs>
<clipPath id="clip0_45_121">
<rect width="62" height="62" fill="white"/>
</clipPath>
</defs>
</svg>
