<?xml version="1.0" encoding="UTF-8"?>
<svg id="Layer_1" data-name="Layer 1" xmlns="http://www.w3.org/2000/svg" viewBox="0 0 713.2 372.5">
  <defs>
    <style>
      .cls-1 {
        fill: #fff;
      }

      .cls-1, .cls-2 {
        stroke-width: 0px;
      }

      .cls-2 {
        fill: #006958;
      }
    </style>
  </defs>
  <rect class="cls-2" width="713.2" height="372.5"/>
  <g>
    <path class="cls-1" d="M183.1,287.9h-5.2c-.1,0-.2,0-.2-.2,0-.1,0-.2.2-.2.3,0,.6-.2.9-.5s.3-.9.3-1.6v-24.6h-3c-1.3,0-2.5.2-3.5.7-1,.5-1.6,1.1-1.7,1.8,0,0,0,0,0,0,0,0,0,.1,0,.2s0,0-.1,0c-.1,0-.2,0-.2-.2l.6-3.4h18.8l.6,3.4c0,.2,0,.2-.2.2s-.1,0-.1,0c0,0,0,0,0-.2,0,0,0,0,0,0-.2-.7-.7-1.3-1.7-1.8-1-.5-2.1-.7-3.4-.7h-3v24.6c0,.6.1,1.1.3,1.5.2.4.4.6.7.6h.2c.1,0,.2,0,.2.2,0,.1,0,.2-.2.2Z"/>
    <path class="cls-1" d="M218.2,287.9h-5.2c0,0-.1,0-.1,0,0,0,0,0,0-.1,0-.1,0-.2.1-.2,0,0,.2,0,.2,0,.3,0,.6-.2.8-.6.2-.4.3-.9.3-1.5v-11.1h-16.8v11.1c0,.7.1,1.3.4,1.6.2.3.5.5.8.5s.1,0,.2,0c0,0,0,0,0,.1s0,.1,0,.1c0,0,0,0-.2,0h-5.2c0,0-.1,0-.1,0,0,0,0,0,0-.1,0-.1,0-.2.1-.2,0,0,.2,0,.2,0,.3,0,.5-.2.7-.6.2-.4.3-.9.3-1.5v-23c0-.7-.1-1.2-.3-1.6s-.5-.5-.8-.5-.1,0-.1,0c0,0,0,0,0-.1s0-.1,0-.2c0,0,0,0,.1,0h5.2c0,0,.1,0,.2,0s0,0,0,.2,0,.1,0,.1,0,0-.2,0c-.3,0-.6.2-.8.5s-.4.9-.4,1.6v11.1h16.8v-11.1c0-.7-.1-1.2-.3-1.6s-.5-.5-.9-.5-.1,0-.1,0,0,0,0-.1,0-.1,0-.2,0,0,.1,0h5.2c0,0,.1,0,.2,0,0,0,0,0,0,.2s0,.2,0,.2-.2,0-.3,0c-.3,0-.5.2-.7.6-.2.4-.3.9-.3,1.5v23c0,.6.1,1.1.3,1.5.2.4.4.6.7.6s.2,0,.3,0c0,0,0,0,0,.2s0,.1,0,.1c0,0,0,0-.2,0Z"/>
    <path class="cls-1" d="M239.2,287.9h-17.9c0,0,0,0-.1,0,0,0,0-.1,0-.2,0,0,0-.1,0-.2,0,0,0,0,.1,0,.3,0,.6-.2.9-.5.2-.3.4-.9.4-1.6v-23c0-.6-.1-1.1-.3-1.5-.2-.4-.5-.6-.7-.6s-.2,0-.3,0c0,0,0,0,0-.2,0,0,0-.1,0-.2,0,0,0,0,.1,0h17.9l.6,3.4c0,0,0,.1,0,.1,0,0,0,0-.2,0,0,0,0,0-.1,0,0,0,0,0,0,0,0-.5-.3-.9-.8-1.3-.5-.4-1.2-.7-2-.9s-1.6-.3-2.5-.3h-8.8v12.8h8.7c.6,0,1.1-.1,1.5-.3.4-.2.6-.5.6-.8s0-.2,0-.2c0,0,0,0,.2,0h0c0,0,.1,0,.1,0s0,0,0,.1v3.2c0,0,0,.1,0,.1,0,0,0,0-.1,0,0,0-.1,0-.2,0,0,0,0,0,0-.2,0-.3-.2-.6-.5-.8-.3-.2-.9-.3-1.6-.3h-8.7v12.7h8.8c1.3,0,2.5-.2,3.5-.7,1-.5,1.6-1.1,1.8-1.8,0-.2,0-.3.3-.3.1,0,.2.1.2.2l-.6,3.4Z"/>
    <path class="cls-1" d="M259.5,287.9h-5.2c0,0-.1,0-.1,0,0,0,0,0,0-.1,0-.1,0-.2.1-.2,0,0,.2,0,.2,0,.3,0,.5-.2.7-.6.2-.4.3-.9.3-1.5v-23c0-.7-.1-1.2-.3-1.6s-.5-.5-.8-.5-.1,0-.1,0c0,0,0,0,0-.1s0-.1,0-.2c0,0,0,0,.1,0h9.6c1.6,0,3,.3,4.2,1,1.3.6,2.3,1.5,3,2.6.8,1.1,1.1,2.3,1.1,3.6s-.4,2.5-1.1,3.6c-.8,1.1-1.8,2-3,2.6-1.3.6-2.7,1-4.2,1h-5.6v11.1c0,.7.1,1.3.4,1.6.2.3.5.5.8.5s.1,0,.2,0c0,0,0,0,0,.1s0,.1,0,.1c0,0,0,0-.2,0ZM264,273.5c1.5,0,2.7-.6,3.8-1.9,1-1.2,1.6-2.7,1.6-4.5s-.5-3.3-1.6-4.5-2.3-1.9-3.8-1.9h-3.5c-.6,0-1.1.1-1.5.3-.4.2-.6.5-.6.8v11.7h5.6Z"/>
    <path class="cls-1" d="M292,287.9h-4.8c-.1,0-.2,0-.2-.2,0-.1,0-.2.1-.2h.2c.3,0,.5-.3.5-.9,0-.3-.9-3.2-2.8-8.7h-9.9l-2.3,6.7c0,.2-.1.3-.2.5-.1.3-.2.5-.2.7s0,.4,0,.7v.5c0,.3.2.4.6.4s.2,0,.3.2c0,.1,0,.2-.2.2h-3c-.1,0-.2,0-.2-.2s0-.2.3-.2c.3,0,.7-.2,1-.6.3-.4.6-.9.8-1.5l8.8-25.5h.8l8.8,25.5c.2.6.5,1.1.8,1.5.3.4.7.6,1,.6s.2,0,.3.2c0,.1,0,.2-.2.2ZM284.7,277.1l-4.7-13.4-4.6,13.4h9.3Z"/>
    <path class="cls-1" d="M312.9,287.9h-17.8c0,0-.1,0-.1,0,0,0,0,0,0-.1,0-.1,0-.2.1-.2,0,0,.2,0,.2,0,.3,0,.5-.2.7-.6.2-.4.3-.9.3-1.5v-23c0-.7-.1-1.2-.3-1.6s-.5-.5-.8-.5-.1,0-.1,0c0,0,0,0,0-.1s0-.1,0-.2c0,0,0,0,.1,0h5.2c0,0,.1,0,.2,0s0,0,0,.2,0,.2,0,.2c0,0-.2,0-.3,0-.3,0-.5.2-.7.6-.2.4-.3.9-.3,1.5v24.6h8.8c1.4,0,2.5-.2,3.5-.7,1-.5,1.5-1.1,1.7-1.9,0,0,0,0,0-.1,0,0,0,0,.1,0,.1,0,.2,0,.2.2l-.6,3.4Z"/>
    <path class="cls-1" d="M346.8,287.9h-5.2c-.1,0-.2,0-.2-.2,0-.1,0-.2.2-.2.3,0,.6-.1.8-.4.2-.3.3-.8.3-1.4l-1.6-23.9-10,26.1h-.8l-9.9-26.1-1.7,23.9c0,.5,0,.9.3,1.3s.4.5.6.5h.2c.1,0,.2,0,.2.2,0,.1,0,.2-.2.2h-3.2c0,0-.1,0-.2,0,0,0,0,0,0-.1s0-.1,0-.1c0,0,.1,0,.2,0,.3,0,.6-.2.9-.5.2-.4.4-.9.5-1.6l1.6-23.3c0-.5,0-.9-.2-1.3-.2-.4-.4-.5-.6-.5h-.2c-.1,0-.2,0-.2-.2,0-.2,0-.2.2-.3h4l9.2,24.4,9.3-24.4h4c0,0,.1,0,.2,0,0,0,0,.1,0,.2s0,0,0,.1c0,0,0,0-.2,0-.3,0-.6.1-.8.4s-.3.7-.3,1.3l1.6,23.4c0,.6.2,1.1.4,1.5.2.4.5.6.8.6h.1c0,0,.1,0,.2,0,0,0,0,0,0,.1s0,0,0,.1c0,0-.1,0-.2,0Z"/>
    <path class="cls-1" d="M386.4,287.9h-5.2c0,0-.1,0-.1,0,0,0,0,0,0-.1,0-.1,0-.2.1-.2,0,0,.2,0,.2,0,.3,0,.6-.2.8-.6.2-.4.3-.9.3-1.5v-11.1h-16.8v11.1c0,.7.1,1.3.4,1.6.2.3.5.5.8.5s.1,0,.2,0c0,0,0,0,0,.1s0,.1,0,.1c0,0,0,0-.2,0h-5.2c0,0-.1,0-.1,0,0,0,0,0,0-.1,0-.1,0-.2.1-.2,0,0,.2,0,.2,0,.3,0,.5-.2.7-.6.2-.4.3-.9.3-1.5v-23c0-.7-.1-1.2-.3-1.6-.2-.3-.5-.5-.8-.5s-.1,0-.1,0c0,0,0,0,0-.1s0-.1,0-.2c0,0,0,0,.1,0h5.2c0,0,.1,0,.2,0s0,0,0,.2,0,.1,0,.1,0,0-.2,0c-.3,0-.6.2-.8.5s-.4.9-.4,1.6v11.1h16.8v-11.1c0-.7-.1-1.2-.3-1.6s-.5-.5-.9-.5-.1,0-.1,0,0,0,0-.1,0-.1,0-.2,0,0,.1,0h5.2c0,0,.1,0,.2,0,0,0,0,0,0,.2s0,.2,0,.2-.2,0-.3,0c-.3,0-.5.2-.7.6-.2.4-.3.9-.3,1.5v23c0,.6.1,1.1.3,1.5.2.4.4.6.7.6s.2,0,.3,0c0,0,0,0,0,.2s0,.1,0,.1c0,0,0,0-.2,0Z"/>
    <path class="cls-1" d="M394.7,287.9h-5.2c0,0-.1,0-.1,0,0,0,0,0,0-.1,0-.1,0-.2.1-.2,0,0,.2,0,.2,0,.3,0,.5-.2.7-.6.2-.4.3-.9.3-1.5v-23c0-.7-.1-1.2-.3-1.6-.2-.3-.5-.5-.8-.5s-.1,0-.1,0c0,0,0,0,0-.1s0-.1,0-.2c0,0,0,0,.1,0h5.2c0,0,.1,0,.2,0s0,0,0,.2,0,.2,0,.2-.2,0-.3,0c-.3,0-.5.2-.7.6-.2.4-.3.9-.3,1.5v23c0,.7.1,1.3.4,1.6.2.3.5.5.8.5s.1,0,.2,0c0,0,0,0,0,.1s0,.1,0,.1c0,0,0,0-.2,0Z"/>
    <path class="cls-1" d="M408.8,287.9h-11c0,0-.1,0-.1,0,0,0,0,0,0-.1,0-.1,0-.2.1-.2,0,0,.2,0,.2,0,.3,0,.5-.2.7-.6.2-.4.3-.9.3-1.5v-23c0-.7-.1-1.2-.3-1.6-.2-.3-.5-.5-.8-.5s-.1,0-.1,0,0,0,0-.1,0-.1,0-.2,0,0,.1,0h11c2.6,0,4.9.6,7,1.9,2.1,1.3,3.8,3,5.1,5.1,1.3,2.1,1.9,4.5,1.9,7.1s-.6,4.9-1.9,7c-1.3,2.1-3,3.8-5.1,5.1-2.1,1.3-4.5,1.9-7,1.9ZM408.8,287.1c2,0,3.8-.6,5.5-1.8,1.7-1.2,3-2.8,4-4.8,1-2,1.5-4.2,1.5-6.6s-.5-4.6-1.5-6.6c-1-2-2.3-3.6-4-4.8-1.7-1.2-3.5-1.8-5.5-1.8h-7v26.3s7,0,7,0Z"/>
    <path class="cls-1" d="M443.5,287.9h-17.9c0,0,0,0-.1,0,0,0,0-.1,0-.2,0,0,0-.1,0-.2s0,0,.1,0c.3,0,.6-.2.9-.5.2-.3.4-.9.4-1.6v-23c0-.6-.1-1.1-.3-1.5s-.5-.6-.7-.6-.2,0-.3,0,0,0,0-.2c0,0,0-.1,0-.2s0,0,.1,0h17.9l.6,3.4c0,0,0,.1,0,.1,0,0,0,0-.2,0,0,0,0,0-.1,0s0,0,0,0c0-.5-.3-.9-.8-1.3-.5-.4-1.2-.7-2-.9-.8-.2-1.6-.3-2.5-.3h-8.8v12.8h8.7c.6,0,1.1-.1,1.5-.3.4-.2.6-.5.6-.8s0-.2,0-.2c0,0,0,0,.2,0h0c0,0,.1,0,.1,0,0,0,0,0,0,.1v3.2c0,0,0,.1,0,.1,0,0,0,0-.1,0,0,0-.1,0-.2,0s0,0,0-.2c0-.3-.2-.6-.5-.8-.3-.2-.9-.3-1.6-.3h-8.7v12.7h8.8c1.3,0,2.5-.2,3.5-.7,1-.5,1.6-1.1,1.8-1.8,0-.2,0-.3.3-.3.1,0,.2.1.2.2l-.6,3.4Z"/>
    <path class="cls-1" d="M469,287.9h-4.8c-.1,0-.2,0-.2-.2,0-.1,0-.2.1-.2h.2c.3,0,.5-.3.5-.9,0-.3-.9-3.2-2.8-8.7h-9.9l-2.3,6.7c0,.2-.1.3-.2.5-.1.3-.2.5-.2.7,0,.2,0,.4,0,.7v.5c0,.3.2.4.6.4s.2,0,.3.2c0,.1,0,.2-.2.2h-3c-.1,0-.2,0-.2-.2s0-.2.3-.2c.3,0,.7-.2,1-.6s.6-.9.8-1.5l8.8-25.5h.8l8.8,25.5c.2.6.5,1.1.8,1.5s.7.6,1,.6.2,0,.3.2c0,.1,0,.2-.2.2ZM461.7,277.1l-4.7-13.4-4.6,13.4h9.3Z"/>
    <path class="cls-1" d="M494.3,287.9h-.8l-8.4-24.2-8.4,24.2h-.8l-8.8-25.5c-.2-.6-.5-1.1-.8-1.5-.3-.4-.6-.6-.9-.6s-.2,0-.2,0,0,0,0-.2,0-.1,0-.2c0,0,0,0,.1,0h4.8c.1,0,.2,0,.2.3,0,.1,0,.2-.2.2-.2,0-.3,0-.5.2-.1.1-.2.3-.2.7s0,.8.3,1.3l7.5,21.7,8.4-24.3h.7l8.4,24.3,7.5-21.7c.2-.5.3-.9.3-1.3,0-.5-.2-.8-.5-.8h-.2s0,0-.1,0c0,0,0,0,0-.1,0,0,0-.1,0-.2,0,0,0,0,.1,0h3c0,0,.1,0,.1,0,0,0,0,.1,0,.2,0,.1,0,.2-.2.2-.3,0-.6.2-1,.5s-.6.9-.9,1.6l-8.8,25.5Z"/>
    <path class="cls-1" d="M523.2,287.9h-4.8c-.1,0-.2,0-.2-.2,0-.1,0-.2.1-.2h.2c.3,0,.5-.3.5-.9,0-.3-.9-3.2-2.8-8.7h-9.9l-2.3,6.7c0,.2-.1.3-.2.5-.1.3-.2.5-.2.7,0,.2,0,.4,0,.7v.5c0,.3.2.4.6.4s.2,0,.3.2c0,.1,0,.2-.2.2h-3c-.1,0-.2,0-.2-.2s0-.2.3-.2c.3,0,.7-.2,1-.6.3-.4.6-.9.8-1.5l8.8-25.5h.8l8.8,25.5c.2.6.5,1.1.8,1.5.3.4.7.6,1,.6s.2,0,.3.2c0,.1,0,.2-.2.2ZM515.9,277.1l-4.7-13.4-4.6,13.4h9.3Z"/>
    <path class="cls-1" d="M533.2,287.9h-5.2c0,0-.1,0-.2,0,0,0,0,0,0-.1s0-.1,0-.1c0,0,.1,0,.2,0,.3,0,.6-.2.8-.5.2-.4.3-.9.3-1.6v-11.4l-7.3-11.6c-.4-.6-.8-1.1-1.3-1.5-.5-.4-.8-.6-1.1-.6s-.2,0-.2,0c0,0-.1,0-.1-.2s0-.1,0-.2c0,0,.1,0,.2,0h5.6c.1,0,.2,0,.2.3,0,0,0,0,0,.1,0,0,0,0-.1,0-.2,0-.3,0-.4,0s-.1.2-.1.4c0,.4.2.9.6,1.6l6.3,9.9,6.3-9.9c.4-.7.6-1.3.6-1.6s0-.4-.1-.4-.2,0-.4,0-.2,0-.2-.2c0,0,0-.1,0-.2,0,0,0,0,.1,0h3.3c0,0,.1,0,.2,0,0,0,0,.1,0,.2s0,0,0,.1c0,0-.1,0-.2,0-.3,0-.7.2-1.2.5-.4.3-.9.9-1.4,1.6l-6.5,10.4v12.6c0,.7.1,1.3.4,1.6.2.3.5.5.9.5s0,0,.1,0c0,0,0,0,0,.1s0,0,0,.1c0,0,0,0-.1,0Z"/>
  </g>
  <g>
    <path class="cls-1" d="M248.2,154h214.7s-48.1,4.3-58.3,5.5c-19.9,2.4-56,3.6-74.5,2.1-9.2-.7-81.9-7.6-81.9-7.6Z"/>
    <path class="cls-1" d="M253.4,176.9h204.6s-36.8,1.2-55.5,3.6-58.2,2.1-74.9,1.2c-9.9-.5-18.2-1.8-31.1-2.6s-43-2.2-43-2.2Z"/>
    <path class="cls-1" d="M264.1,199.7h183.2s-32.9,1-49.7,2.9c-16.8,1.9-52.1,1.7-67.1,1s-16.3-1.5-27.9-2.1-38.5-1.8-38.5-1.8Z"/>
    <path class="cls-1" d="M283.9,222.5h144s-25.9,1-39.1,2.9c-13.2,1.9-41,1.7-52.7,1-6.9-.4-12.8-1.5-21.9-2.1s-30.3-1.8-30.3-1.8Z"/>
    <path class="cls-1" d="M391,135.7c-2.8.2-6,.3-8.5-.4-2.9-.7-6.7-2.8-6.2-6.1.3-1.5,1.6-3,3.3-4.9,14.3-15.3,35.1-37.6,48.9-52.4.2-.2.3-.3.4-.5.1-.1.2-.2.3-.3,0,0,0,0,0,0-1.4,1.3-4.3,4.3-9.3,9.2-12.3,12.1-29,28.8-41.5,40.9-4.2,4.2-7.1,5.1-11.6,1.6-3.4-2.6-5.5-6.7-6.6-10.9-5.6-22.6-6.3-64.4-7.3-82.8-.2,1-.1,2.9-.2,4.7-.8,20.7-1.4,74.5-11.4,88.8-1.7,2.9-5.7,4.6-8.8,2.7-1.3-.7-2.6-2-4.2-3.5-13.1-12.7-44.1-42.8-51.9-50.3,7,7.7,18.1,19.1,26.8,28.2,6.1,6.4,11.2,11.8,16.2,17,2.8,2.9,6.3,6.6,7.7,9.6,2,3.7,1,7.3-3.5,8.4-2.3.6-4.4.6-7,.6-19-.2-46.5-7.2-58-9.9h0c15.1,4.8,37,11.1,53.9,15.3,7.3,1.8,14.6,3.5,22,4.9,0,0,0,0,.1,0,2.3.4,4.5-.9,5.4-3,2.1-5,7.1-8.5,12.8-8.5s11.2,3.9,13.1,9.2c.7,1.9,2.7,3.1,4.7,2.8s0,0,0,0c14.1-1.8,20.8-4.3,34.6-7.9,14.1-3.8,32.2-8.9,44.1-12.9-11.3,2.2-39.4,8.4-58.2,10.1Z"/>
  </g>
  <g>
    <path class="cls-1" d="M303.7,325l-3.6-4.4c-.4,0-.8,0-1.3,0h-4.2v4.3h-1.7v-13.7h5.9c4,0,6.4,1.8,6.4,4.7s-1.3,3.7-3.6,4.3l3.8,4.7h-1.8ZM303.6,316c0-2.2-1.7-3.4-4.8-3.4h-4.2v6.9h4.2c3.2,0,4.8-1.3,4.8-3.4Z"/>
    <path class="cls-1" d="M326.2,323.7v1.3h-11.1v-13.7h10.8v1.3h-9.1v4.9h8.1v1.2h-8.1v5.1h9.5Z"/>
    <path class="cls-1" d="M334.5,323.3l.7-1.1c1.1,1,3.1,1.7,5.2,1.7,2.9,0,4.2-1.1,4.2-2.4,0-3.8-9.7-1.5-9.7-6.5s1.8-3.8,5.8-3.8,3.6.5,4.9,1.2l-.6,1.2c-1.4-.8-2.9-1.1-4.3-1.1-2.9,0-4.2,1.1-4.2,2.5,0,3.8,9.7,1.5,9.7,6.5s-1.8,3.7-5.9,3.7-4.7-.7-5.9-1.8Z"/>
    <path class="cls-1" d="M354.3,318.1c0-4,3.5-7,8.3-7s8.3,3,8.3,7-3.5,7-8.3,7-8.3-3-8.3-7ZM369.2,318.1c0-3.3-2.8-5.7-6.6-5.7s-6.6,2.4-6.6,5.7,2.8,5.7,6.6,5.7,6.6-2.4,6.6-5.7Z"/>
    <path class="cls-1" d="M391.3,325l-3.6-4.4c-.4,0-.8,0-1.3,0h-4.2v4.3h-1.7v-13.7h5.9c4,0,6.4,1.8,6.4,4.7s-1.3,3.7-3.6,4.3l3.8,4.7h-1.8ZM391.2,316c0-2.2-1.7-3.4-4.8-3.4h-4.2v6.9h4.2c3.2,0,4.8-1.3,4.8-3.4Z"/>
    <path class="cls-1" d="M405.7,312.5h-5.5v-1.3h12.7v1.3h-5.5v12.5h-1.7v-12.5Z"/>
  </g>
</svg>